<?xml version="1.0" encoding="UTF-8"?>
<!DOCTYPE svg PUBLIC "-//W3C//DTD SVG 1.1//EN" "http://www.w3.org/Graphics/SVG/1.1/DTD/svg11.dtd">
<svg xmlns="http://www.w3.org/2000/svg" version="1.1" width="1600px" height="470px" style="shape-rendering:geometricPrecision; text-rendering:geometricPrecision; image-rendering:optimizeQuality; fill-rule:evenodd; clip-rule:evenodd" xmlns:xlink="http://www.w3.org/1999/xlink">
<g><path style="opacity:0.656" fill="#3c915c" d="M 225.5,190.5 C 218.239,188.746 211.239,186.413 204.5,183.5C 202.5,182.651 201.167,181.151 200.5,179C 202.051,176.823 203.051,174.323 203.5,171.5C 203.333,170.167 203.167,168.833 203,167.5C 201.011,165.268 198.511,163.768 195.5,163C 194.257,161.846 193.257,160.512 192.5,159C 176.599,156.327 160.932,157.16 145.5,161.5C 148.437,159.344 151.771,157.844 155.5,157C 172.352,152.551 188.352,154.551 203.5,163C 210.298,169.03 209.965,174.697 202.5,180C 210.311,183.426 217.977,186.926 225.5,190.5 Z"/></g>
<g><path style="opacity:0.455" fill="#2f7c4e" d="M 441.5,175.5 C 440.883,175.389 440.383,175.056 440,174.5C 439.503,171.854 439.336,169.187 439.5,166.5C 435.195,165.901 431.529,164.068 428.5,161C 423.274,159.296 417.941,158.13 412.5,157.5C 407.695,156.513 402.695,156.179 397.5,156.5C 397.918,155.778 398.584,155.278 399.5,155C 412.905,154.234 425.572,156.9 437.5,163C 441.165,166.298 442.498,170.465 441.5,175.5 Z"/></g>
<g><path style="opacity:0.865" fill="#3ab26f" d="M 397.5,156.5 C 402.695,156.179 407.695,156.513 412.5,157.5C 399.647,156.671 387.813,159.671 377,166.5C 376.371,170.871 376.537,175.204 377.5,179.5C 377.167,179.5 376.833,179.5 376.5,179.5C 375.508,179.672 374.842,179.338 374.5,178.5C 373.108,176.443 372.441,174.109 372.5,171.5C 373.021,169.076 373.688,166.743 374.5,164.5C 380.944,158.684 388.61,156.017 397.5,156.5 Z"/></g>
<g><path style="opacity:1" fill="#28d970" d="M 412.5,157.5 C 417.941,158.13 423.274,159.296 428.5,161C 431.529,164.068 435.195,165.901 439.5,166.5C 439.336,169.187 439.503,171.854 440,174.5C 440.383,175.056 440.883,175.389 441.5,175.5C 441.5,176.167 441.167,176.5 440.5,176.5C 438.801,176.34 437.134,176.506 435.5,177C 434.743,178.512 433.743,179.846 432.5,181C 423.806,183.138 414.972,184.638 406,185.5C 398.145,184.616 390.312,184.616 382.5,185.5C 378.716,187.447 374.716,188.78 370.5,189.5C 368.712,190.283 367.712,191.616 367.5,193.5C 366.486,194.674 365.153,195.34 363.5,195.5C 358.794,196.343 354.128,197.51 349.5,199C 347.382,200.049 345.716,201.549 344.5,203.5C 341.813,203.664 339.146,203.497 336.5,203C 336.043,202.586 335.709,202.086 335.5,201.5C 338.407,200.019 341.407,198.685 344.5,197.5C 345.63,196.378 346.297,195.044 346.5,193.5C 353.315,192.236 359.981,190.403 366.5,188C 369.36,185.446 372.693,183.779 376.5,183C 377.337,181.989 377.67,180.822 377.5,179.5C 376.537,175.204 376.371,170.871 377,166.5C 387.813,159.671 399.647,156.671 412.5,157.5 Z"/></g>
<g><path style="opacity:0.952" fill="#e6e6e6" d="M 588.5,179.5 C 588.5,177.167 588.5,174.833 588.5,172.5C 597.546,168.391 606.546,168.558 615.5,173C 616.982,175.592 616.648,177.925 614.5,180C 605.611,184.802 596.944,184.636 588.5,179.5 Z"/></g>
<g><path style="opacity:1" fill="#25da6e" d="M 204.5,183.5 C 205.936,184.429 207.269,185.595 208.5,187C 204.432,186.655 200.432,185.655 196.5,184C 192.973,183.192 189.64,183.359 186.5,184.5C 177.523,185.514 168.523,185.681 159.5,185C 154.475,183.22 149.475,181.22 144.5,179C 141.682,175.662 140.849,171.829 142,167.5C 143.841,165.841 145.008,163.841 145.5,161.5C 160.932,157.16 176.599,156.327 192.5,159C 193.257,160.512 194.257,161.846 195.5,163C 198.511,163.768 201.011,165.268 203,167.5C 203.167,168.833 203.333,170.167 203.5,171.5C 203.051,174.323 202.051,176.823 200.5,179C 201.167,181.151 202.5,182.651 204.5,183.5 Z"/></g>
<g><path style="opacity:0.188" fill="#1d4428" d="M 374.5,164.5 C 373.688,166.743 373.021,169.076 372.5,171.5C 372.441,174.109 373.108,176.443 374.5,178.5C 367.898,173.608 367.898,168.941 374.5,164.5 Z"/></g>
<g><path style="opacity:0.015" fill="#010101" d="M 1332.5,172.5 C 1333.17,181.16 1333.5,189.994 1333.5,199C 1333.5,208.193 1332.83,217.026 1331.5,225.5C 1332.49,207.91 1332.82,190.243 1332.5,172.5 Z"/></g>
<g><path style="opacity:0.373" fill="#38925f" d="M 1394.5,171.5 C 1399.27,172.889 1404.27,173.556 1409.5,173.5C 1412.73,173.676 1415.73,174.343 1418.5,175.5C 1404.37,174.16 1390.21,173.493 1376,173.5C 1368.47,173.503 1361.3,174.169 1354.5,175.5C 1352.95,176.441 1351.28,177.107 1349.5,177.5C 1349.5,175.5 1349.5,173.5 1349.5,171.5C 1364.5,171.5 1379.5,171.5 1394.5,171.5 Z"/></g>
<g><path style="opacity:0.122" fill="#443a2a" d="M 1394.5,171.5 C 1399.73,171.444 1404.73,172.111 1409.5,173.5C 1404.27,173.556 1399.27,172.889 1394.5,171.5 Z"/></g>
<g><path style="opacity:0.025" fill="#161616" d="M 588.5,172.5 C 588.5,174.833 588.5,177.167 588.5,179.5C 584.634,177.259 584.634,174.925 588.5,172.5 Z"/></g>
<g><path style="opacity:0.744" fill="#c3c3c3" d="M 904.5,179.5 C 900.189,178.351 895.856,177.184 891.5,176C 874.473,175.062 857.473,174.228 840.5,173.5C 842.292,172.691 844.292,172.191 846.5,172C 858.167,171.333 869.833,171.333 881.5,172C 889.734,173.133 897.4,175.633 904.5,179.5 Z"/></g>
<g><path style="opacity:0.969" fill="#f2f2f2" d="M 840.5,173.5 C 857.473,174.228 874.473,175.062 891.5,176C 895.856,177.184 900.189,178.351 904.5,179.5C 904.833,179.5 905.167,179.5 905.5,179.5C 906.513,183.68 909.18,186.013 913.5,186.5C 913.5,188.5 913.5,190.5 913.5,192.5C 905.5,192.5 897.5,192.5 889.5,192.5C 888.126,187.61 884.792,184.777 879.5,184C 872.555,182.77 865.555,182.27 858.5,182.5C 857.848,181.275 856.681,180.608 855,180.5C 846.167,182.032 838.167,185.366 831,190.5C 830.123,192.674 830.623,194.341 832.5,195.5C 832.5,197.5 832.5,199.5 832.5,201.5C 832.62,204.48 833.287,207.313 834.5,210C 837.952,210.892 840.952,212.558 843.5,215C 846.039,215.796 848.372,215.629 850.5,214.5C 862.848,216.682 874.848,215.516 886.5,211C 888.175,209.291 889.842,207.624 891.5,206C 898.826,205.5 906.159,205.334 913.5,205.5C 913.795,207.735 913.461,209.735 912.5,211.5C 910.876,211.36 909.71,212.027 909,213.5C 908.586,213.043 908.086,212.709 907.5,212.5C 906.678,214.139 906.011,215.805 905.5,217.5C 901.852,219.94 897.852,221.607 893.5,222.5C 886.344,222.598 879.677,223.931 873.5,226.5C 862.47,226.665 851.47,226.165 840.5,225C 831.046,223.268 822.712,219.435 815.5,213.5C 813.795,210.958 812.295,208.292 811,205.5C 810.329,204.748 809.496,204.414 808.5,204.5C 806.938,200.242 807.272,196.242 809.5,192.5C 811.952,189.724 814.285,186.724 816.5,183.5C 818.713,181.14 821.379,179.306 824.5,178C 829.597,175.615 834.931,174.115 840.5,173.5 Z"/></g>
<g><path style="opacity:0.922" fill="#f4f4f4" d="M 1226.5,187.5 C 1236.08,185.638 1245.74,185.138 1255.5,186C 1263.49,187.742 1271.16,190.242 1278.5,193.5C 1280.48,200.057 1280.82,206.724 1279.5,213.5C 1272.42,219.083 1264.42,222.583 1255.5,224C 1254.75,224.671 1254.41,225.504 1254.5,226.5C 1243.39,227.437 1232.72,225.77 1222.5,221.5C 1222.52,222.786 1222.19,224.12 1221.5,225.5C 1213.83,224.167 1206.17,224.167 1198.5,225.5C 1197.34,208.005 1197.17,190.338 1198,172.5C 1205.75,171.353 1213.59,171.186 1221.5,172C 1222.31,177.417 1222.81,182.917 1223,188.5C 1224.01,187.663 1225.18,187.33 1226.5,187.5 Z M 1238.5,194.5 C 1244.67,194.787 1250.67,195.953 1256.5,198C 1257.33,198.833 1258.17,199.667 1259,200.5C 1261.62,208.12 1259.12,212.954 1251.5,215C 1242.63,216.167 1233.96,215.5 1225.5,213C 1224.67,212.167 1223.83,211.333 1223,210.5C 1222.33,207.167 1222.33,203.833 1223,200.5C 1223.83,199.667 1224.67,198.833 1225.5,198C 1229.86,196.417 1234.19,195.25 1238.5,194.5 Z"/></g>
<g><path style="opacity:0.102" fill="#000500" d="M 1459.5,171.5 C 1458.51,189.423 1458.18,207.423 1458.5,225.5C 1457.17,217.193 1456.5,208.527 1456.5,199.5C 1456.67,190.833 1456.83,182.167 1457,173.5C 1457.42,172.244 1458.25,171.577 1459.5,171.5 Z"/></g>
<g><path style="opacity:0.549" fill="#339057" d="M 145.5,161.5 C 145.008,163.841 143.841,165.841 142,167.5C 140.849,171.829 141.682,175.662 144.5,179C 149.475,181.22 154.475,183.22 159.5,185C 168.523,185.681 177.523,185.514 186.5,184.5C 186.5,185.167 186.5,185.833 186.5,186.5C 172.504,189.832 158.838,188.665 145.5,183C 140.93,180.448 137.93,176.781 136.5,172C 137.119,166.542 140.119,163.042 145.5,161.5 Z"/></g>
<g><path style="opacity:0.354" fill="#b7b7b7" d="M 1049.5,224.5 C 1041.5,224.5 1033.5,224.5 1025.5,224.5C 1025.83,209.324 1025.5,194.324 1024.5,179.5C 1024.23,176.881 1024.56,174.381 1025.5,172C 1033.49,171.5 1041.49,171.334 1049.5,171.5C 1050.81,189.209 1050.81,206.876 1049.5,224.5 Z"/></g>
<g><path style="opacity:0.974" fill="#fcfcfc" d="M 1028.5,174.5 C 1034.09,174.193 1039.59,174.527 1045,175.5C 1045.5,191.497 1045.67,207.497 1045.5,223.5C 1039.5,223.5 1033.5,223.5 1027.5,223.5C 1027.18,207.089 1027.52,190.756 1028.5,174.5 Z"/></g>
<g><path style="opacity:0.941" fill="#3ca868" d="M 314.5,182.5 C 316.22,185.889 316.887,189.556 316.5,193.5C 315.5,193.5 314.5,193.5 313.5,193.5C 313.5,194.833 313.5,196.167 313.5,197.5C 305.964,202.279 297.631,204.279 288.5,203.5C 278.279,204.368 269.279,201.702 261.5,195.5C 260.08,192.739 259.413,189.739 259.5,186.5C 261.76,182.839 265.093,180.339 269.5,179C 285.114,173.543 300.114,174.71 314.5,182.5 Z"/></g>
<g><path style="opacity:0.061" fill="#272727" d="M 1066.5,173.5 C 1066.26,174.791 1066.6,175.791 1067.5,176.5C 1067.5,192.833 1067.5,209.167 1067.5,225.5C 1066.62,225.631 1065.96,225.298 1065.5,224.5C 1065.67,207.93 1066,190.93 1066.5,173.5 Z"/></g>
<g><path style="opacity:0.902" fill="#30b669" d="M 1481.5,193.5 C 1481.83,193.5 1482.17,193.5 1482.5,193.5C 1495.5,194.167 1508.5,194.833 1521.5,195.5C 1507.82,195.549 1494.15,195.716 1480.5,196C 1475.41,194.364 1474.07,191.03 1476.5,186C 1476.75,183.606 1477.75,181.606 1479.5,180C 1494.5,179.5 1509.5,179.333 1524.5,179.5C 1524.77,177.549 1524.11,176.049 1522.5,175C 1502.5,174.5 1482.5,174.333 1462.5,174.5C 1462.5,190.5 1462.5,206.5 1462.5,222.5C 1461.83,222.167 1461.17,221.833 1460.5,221.5C 1460.33,205.83 1460.5,190.163 1461,174.5C 1482.43,173.174 1503.93,173.174 1525.5,174.5C 1526.77,176.371 1526.77,178.204 1525.5,180C 1511.17,180.333 1496.83,180.667 1482.5,181C 1481.25,183.041 1480.58,185.375 1480.5,188C 1480.42,190.636 1480.75,192.469 1481.5,193.5 Z"/></g>
<g><path style="opacity:0.557" fill="#2e7f4e" d="M 1531.5,175.5 C 1531.95,178.365 1531.28,180.865 1529.5,183C 1513.5,183.5 1497.5,183.667 1481.5,183.5C 1481.5,186.833 1481.5,190.167 1481.5,193.5C 1480.75,192.469 1480.42,190.636 1480.5,188C 1480.58,185.375 1481.25,183.041 1482.5,181C 1496.83,180.667 1511.17,180.333 1525.5,180C 1526.77,178.204 1526.77,176.371 1525.5,174.5C 1503.93,173.174 1482.43,173.174 1461,174.5C 1460.5,190.163 1460.33,205.83 1460.5,221.5C 1459.19,207.294 1459.19,191.128 1460.5,173C 1482.84,172.167 1505.17,172.334 1527.5,173.5C 1528.58,174.705 1529.91,175.372 1531.5,175.5 Z"/></g>
<g><path style="opacity:0.47" fill="#c3c3c3" d="M 1090.5,172.5 C 1089.5,189.659 1089.17,206.992 1089.5,224.5C 1083.97,224.179 1078.64,224.512 1073.5,225.5C 1071.5,225.5 1069.5,225.5 1067.5,225.5C 1067.5,209.167 1067.5,192.833 1067.5,176.5C 1066.6,175.791 1066.26,174.791 1066.5,173.5C 1070.11,172.176 1074.11,171.509 1078.5,171.5C 1082.68,171.501 1086.68,171.834 1090.5,172.5 Z"/></g>
<g><path style="opacity:0.978" fill="#fafafa" d="M 1067.5,176.5 C 1067.36,174.876 1068.03,173.71 1069.5,173C 1075.49,172.501 1081.49,172.334 1087.5,172.5C 1087.5,189.5 1087.5,206.5 1087.5,223.5C 1081.17,223.5 1074.83,223.5 1068.5,223.5C 1068.83,207.658 1068.5,191.991 1067.5,176.5 Z"/></g>
<g><path style="opacity:0.376" fill="#3e754d" d="M 186.5,184.5 C 193.158,184.009 198.824,186.009 203.5,190.5C 200.327,189.83 197.327,188.664 194.5,187C 191.854,186.503 189.187,186.336 186.5,186.5C 186.5,185.833 186.5,185.167 186.5,184.5 Z"/></g>
<g><path style="opacity:1" fill="#25db6f" d="M 282.5,179.5 C 292.352,178.442 301.685,180.109 310.5,184.5C 311.657,187.784 311.824,191.118 311,194.5C 310.255,195.99 309.088,196.99 307.5,197.5C 293.698,201.586 280.031,201.42 266.5,197C 264.788,194.067 263.288,191.234 262,188.5C 267.609,182.472 274.443,179.472 282.5,179.5 Z"/></g>
<g><path style="opacity:0.616" fill="#338252" d="M 376.5,179.5 C 376.833,179.5 377.167,179.5 377.5,179.5C 377.67,180.822 377.337,181.989 376.5,183C 372.693,183.779 369.36,185.446 366.5,188C 359.981,190.403 353.315,192.236 346.5,193.5C 356.5,188.833 366.5,184.167 376.5,179.5 Z"/></g>
<g><path style="opacity:0.22" fill="#3a945b" d="M 440.5,176.5 C 436.323,181.429 430.99,184.596 424.5,186C 418.471,187.844 412.305,188.677 406,188.5C 398.49,187.742 390.99,187.242 383.5,187C 378.259,189.456 372.925,191.623 367.5,193.5C 367.712,191.616 368.712,190.283 370.5,189.5C 374.716,188.78 378.716,187.447 382.5,185.5C 390.312,184.616 398.145,184.616 406,185.5C 414.972,184.638 423.806,183.138 432.5,181C 433.743,179.846 434.743,178.512 435.5,177C 437.134,176.506 438.801,176.34 440.5,176.5 Z"/></g>
<g><path style="opacity:0.086" fill="#525252" d="M 816.5,183.5 C 814.285,186.724 811.952,189.724 809.5,192.5C 809.979,188.025 812.312,185.025 816.5,183.5 Z"/></g>
<g><path style="opacity:0.075" fill="#717171" d="M 905.5,179.5 C 908.784,181.117 911.451,183.45 913.5,186.5C 909.18,186.013 906.513,183.68 905.5,179.5 Z"/></g>
<g><path style="opacity:0.015" fill="#020204" d="M 612.5,185.5 C 613.117,185.611 613.617,185.944 614,186.5C 614.827,199.673 614.66,212.673 613.5,225.5C 613.797,212.117 613.464,198.784 612.5,185.5 Z"/></g>
<g><path style="opacity:0.6" fill="#888888" d="M 656.5,197.5 C 652.111,195.284 648.444,192.117 645.5,188C 639.175,187.5 632.842,187.334 626.5,187.5C 627.687,190.367 629.687,192.7 632.5,194.5C 633.309,196.071 633.643,197.738 633.5,199.5C 628.093,195.65 624.426,190.65 622.5,184.5C 630.917,184.094 639.251,184.594 647.5,186C 650.715,189.709 653.715,193.542 656.5,197.5 Z"/></g>
<g><path style="opacity:0.597" fill="#737373" d="M 699.5,198.5 C 700.301,196.958 700.634,195.292 700.5,193.5C 701.675,193.719 702.675,193.386 703.5,192.5C 705.297,191.305 706.297,189.638 706.5,187.5C 699.492,187.334 692.492,187.5 685.5,188C 683.236,192.337 679.902,195.504 675.5,197.5C 678.37,193.082 681.703,189.082 685.5,185.5C 693.464,184.562 701.464,184.229 709.5,184.5C 707.742,190.263 704.409,194.929 699.5,198.5 Z"/></g>
<g><path style="opacity:1" fill="#25db6e" d="M 1433.5,210.5 C 1429.07,213.891 1424.41,217.058 1419.5,220C 1416.17,220.667 1412.83,221.333 1409.5,222C 1392.84,222.5 1376.17,222.667 1359.5,222.5C 1358.74,221.732 1357.74,221.232 1356.5,221C 1368.94,219.343 1381.27,218.177 1393.5,217.5C 1397.83,216.833 1402.17,216.167 1406.5,215.5C 1407.17,215.5 1407.83,215.5 1408.5,215.5C 1413.99,214.056 1418.82,211.389 1423,207.5C 1427.54,198.109 1425.37,190.609 1416.5,185C 1408.96,181.098 1400.96,179.598 1392.5,180.5C 1384.34,179.343 1376.01,179.177 1367.5,180C 1366.38,180.249 1365.38,180.749 1364.5,181.5C 1365.81,192.107 1365.81,202.774 1364.5,213.5C 1362.81,214.228 1361.31,215.228 1360,216.5C 1356.49,212.66 1355.99,208.493 1358.5,204C 1358.37,202.941 1357.87,202.108 1357,201.5C 1356.77,194.138 1356.27,186.805 1355.5,179.5C 1355.59,177.575 1356.59,176.408 1358.5,176C 1378.57,174.89 1398.57,175.557 1418.5,178C 1421.28,179.24 1424.11,180.406 1427,181.5C 1426.6,184.061 1426.77,186.728 1427.5,189.5C 1430.89,189.777 1434.06,190.777 1437,192.5C 1437.67,195.167 1437.67,197.833 1437,200.5C 1435.77,203.83 1434.6,207.164 1433.5,210.5 Z M 1372.5,183.5 C 1378.5,183.5 1384.5,183.5 1390.5,183.5C 1395.86,183.472 1401.2,183.806 1406.5,184.5C 1412.82,186.181 1417.49,190.014 1420.5,196C 1420.58,201.844 1418.24,206.51 1413.5,210C 1408.52,211.99 1403.52,213.49 1398.5,214.5C 1396.83,214.5 1395.17,214.5 1393.5,214.5C 1386.5,214.5 1379.5,214.5 1372.5,214.5C 1373.83,204.167 1373.83,193.833 1372.5,183.5 Z"/></g>
<g><path style="opacity:1" fill="#36c972" d="M 186.5,184.5 C 189.64,183.359 192.973,183.192 196.5,184C 200.432,185.655 204.432,186.655 208.5,187C 207.269,185.595 205.936,184.429 204.5,183.5C 211.239,186.413 218.239,188.746 225.5,190.5C 229.459,191.594 233.125,193.261 236.5,195.5C 237.382,197.384 238.882,198.717 241,199.5C 241.483,200.448 241.649,201.448 241.5,202.5C 234.635,200.709 227.968,198.209 221.5,195C 218.518,194.502 215.518,194.335 212.5,194.5C 209.314,193.403 206.314,192.07 203.5,190.5C 198.824,186.009 193.158,184.009 186.5,184.5 Z"/></g>
<g><path style="opacity:0.059" fill="#18321b" d="M 259.5,186.5 C 259.413,189.739 260.08,192.739 261.5,195.5C 259.68,193.871 258.347,191.871 257.5,189.5C 257.453,187.962 258.12,186.962 259.5,186.5 Z"/></g>
<g><path style="opacity:0.995" fill="#f6f6f6" d="M 765.5,215.5 C 766.833,215.5 768.167,215.5 769.5,215.5C 776.2,215.17 782.866,215.503 789.5,216.5C 789.291,217.086 788.957,217.586 788.5,218C 780.966,220.518 773.299,222.352 765.5,223.5C 765.5,224.5 765.5,225.5 765.5,226.5C 759.5,226.5 753.5,226.5 747.5,226.5C 744.555,224.839 741.221,223.672 737.5,223C 733.83,222.452 730.163,221.952 726.5,221.5C 723.008,220.59 720.008,218.924 717.5,216.5C 715.969,211.308 715.303,205.974 715.5,200.5C 716.5,200.5 717.5,200.5 718.5,200.5C 718.287,197.549 718.954,194.882 720.5,192.5C 720.833,192.5 721.167,192.5 721.5,192.5C 733.049,190.288 744.549,188.288 756,186.5C 764.406,188.18 772.906,189.346 781.5,190C 784.034,190.516 786.2,191.683 788,193.5C 788.912,196.239 790.412,198.572 792.5,200.5C 793.474,202.743 793.808,205.076 793.5,207.5C 773.167,207.5 752.833,207.5 732.5,207.5C 732.215,209.288 732.548,210.955 733.5,212.5C 736.21,214.232 738.876,215.899 741.5,217.5C 748.811,218.56 756.144,218.727 763.5,218C 764.756,217.583 765.423,216.75 765.5,215.5 Z M 771.5,197.5 C 771.611,198.117 771.944,198.617 772.5,199C 761.172,199.5 749.838,199.667 738.5,199.5C 749.048,193.617 760.048,192.95 771.5,197.5 Z"/></g>
<g><path style="opacity:0.804" fill="#b3b3b3" d="M 858.5,182.5 C 851.813,182.722 845.48,184.222 839.5,187C 836.79,189.628 834.456,192.461 832.5,195.5C 830.623,194.341 830.123,192.674 831,190.5C 838.167,185.366 846.167,182.032 855,180.5C 856.681,180.608 857.848,181.275 858.5,182.5 Z"/></g>
<g><path style="opacity:0.995" fill="#f2f2f2" d="M 1003.5,192.5 C 1005.28,194.41 1006.28,196.744 1006.5,199.5C 1007.5,199.5 1008.5,199.5 1009.5,199.5C 1009.7,204.974 1009.03,210.308 1007.5,215.5C 1001.83,220.501 995.16,223.668 987.5,225C 977.359,226.559 967.359,226.726 957.5,225.5C 957.209,224.351 956.376,223.684 955,223.5C 947.117,222.936 940.117,220.269 934,215.5C 932.923,212.717 931.256,210.383 929,208.5C 928.833,207.5 928.667,206.5 928.5,205.5C 929.957,202.009 930.957,198.342 931.5,194.5C 935.327,190.658 939.994,188.325 945.5,187.5C 952.969,186.561 960.469,185.895 968,185.5C 979.971,187.286 991.804,189.619 1003.5,192.5 Z M 984.5,197.5 C 984.5,197.833 984.5,198.167 984.5,198.5C 986.807,202.925 987.14,207.592 985.5,212.5C 976.558,216.469 967.224,217.469 957.5,215.5C 955.537,214.18 953.537,212.846 951.5,211.5C 949.946,206.957 950.279,202.623 952.5,198.5C 954.574,197.486 956.574,196.486 958.5,195.5C 959.5,195.5 960.5,195.5 961.5,195.5C 969.336,194 977.003,194.667 984.5,197.5 Z"/></g>
<g><path style="opacity:0.987" fill="#f6f6f6" d="M 1120.5,186.5 C 1131.99,186.797 1143.66,186.963 1155.5,187C 1159.87,187.421 1164.21,188.088 1168.5,189C 1172.11,190.652 1175.78,192.152 1179.5,193.5C 1179.67,203.506 1179.5,213.506 1179,223.5C 1172.59,224.478 1166.09,224.811 1159.5,224.5C 1159.5,223.5 1159.5,222.5 1159.5,221.5C 1154.19,222.395 1148.85,223.229 1143.5,224C 1142.24,224.417 1141.58,225.25 1141.5,226.5C 1136.83,226.5 1132.17,226.5 1127.5,226.5C 1121.26,224.054 1114.92,221.554 1108.5,219C 1107.17,216 1107.17,213 1108.5,210C 1111.82,207.586 1115.48,205.919 1119.5,205C 1132.7,203.287 1146.03,201.954 1159.5,201C 1160.41,199.301 1160.74,197.467 1160.5,195.5C 1159.17,195.5 1157.83,195.5 1156.5,195.5C 1155.83,195.5 1155.17,195.5 1154.5,195.5C 1150.39,194.174 1145.89,193.507 1141,193.5C 1131.32,195.01 1121.49,195.51 1111.5,195C 1114.09,192.584 1116.42,190.084 1118.5,187.5C 1119.17,187.167 1119.83,186.833 1120.5,186.5 Z M 1142.5,217.5 C 1138.1,217.575 1133.77,217.075 1129.5,216C 1127.5,214.847 1127.17,213.347 1128.5,211.5C 1137.03,209.542 1145.7,208.542 1154.5,208.5C 1155.97,207.708 1157.3,207.708 1158.5,208.5C 1157.83,210.101 1157.5,211.601 1157.5,213C 1152.61,215.3 1147.61,216.8 1142.5,217.5 Z"/></g>
<g><path style="opacity:0.58" fill="#33915b" d="M 1427.5,178.5 C 1432.19,180.345 1436.52,182.845 1440.5,186C 1441.25,186.671 1441.59,187.504 1441.5,188.5C 1442.48,191.754 1443.15,195.087 1443.5,198.5C 1442.34,201.69 1441.68,205.023 1441.5,208.5C 1439.47,212.193 1436.47,214.86 1432.5,216.5C 1433.38,213.615 1434.72,210.948 1436.5,208.5C 1442.11,200.656 1441.78,192.989 1435.5,185.5C 1432.99,183.824 1430.49,182.157 1428,180.5C 1427.54,179.906 1427.37,179.239 1427.5,178.5 Z"/></g>
<g><path style="opacity:0.995" fill="#f6f6f6" d="M 656.5,197.5 C 657.338,197.842 657.672,198.508 657.5,199.5C 658.15,201.435 658.483,203.435 658.5,205.5C 659.5,205.5 660.5,205.5 661.5,205.5C 661.186,209.193 662.852,211.527 666.5,212.5C 667.549,210.472 668.549,208.472 669.5,206.5C 671.269,203.281 673.269,200.281 675.5,197.5C 679.902,195.504 683.236,192.337 685.5,188C 692.492,187.5 699.492,187.334 706.5,187.5C 706.297,189.638 705.297,191.305 703.5,192.5C 702.675,193.386 701.675,193.719 700.5,193.5C 700.634,195.292 700.301,196.958 699.5,198.5C 699.5,198.833 699.5,199.167 699.5,199.5C 697.712,199.215 696.045,199.548 694.5,200.5C 695.682,202.467 695.015,203.8 692.5,204.5C 691.162,206.864 689.829,209.198 688.5,211.5C 687.89,213.434 686.89,215.101 685.5,216.5C 681.562,217.47 678.228,219.47 675.5,222.5C 668.858,223.664 662.192,223.831 655.5,223C 654.097,219.595 651.931,216.762 649,214.5C 648.517,213.552 648.351,212.552 648.5,211.5C 647.5,211.5 646.5,211.5 645.5,211.5C 644.833,209.5 644.167,207.5 643.5,205.5C 640.041,204.932 637.041,203.599 634.5,201.5C 633.662,201.158 633.328,200.492 633.5,199.5C 633.643,197.738 633.309,196.071 632.5,194.5C 629.687,192.7 627.687,190.367 626.5,187.5C 632.842,187.334 639.175,187.5 645.5,188C 648.444,192.117 652.111,195.284 656.5,197.5 Z"/></g>
<g><path style="opacity:0.594" fill="#ababab" d="M 1003.5,192.5 C 991.804,189.619 979.971,187.286 968,185.5C 960.469,185.895 952.969,186.561 945.5,187.5C 948.903,186.075 952.57,185.242 956.5,185C 970.481,183.437 984.147,184.771 997.5,189C 999.727,189.941 1001.73,191.108 1003.5,192.5 Z"/></g>
<g><path style="opacity:0.32" fill="#929292" d="M 1278.5,193.5 C 1271.16,190.242 1263.49,187.742 1255.5,186C 1245.74,185.138 1236.08,185.638 1226.5,187.5C 1228.88,186.113 1231.54,185.279 1234.5,185C 1246.38,183.736 1258.05,184.736 1269.5,188C 1272.9,189.357 1275.9,191.19 1278.5,193.5 Z"/></g>
<g><path style="opacity:0.667" fill="#aeaeae" d="M 1141.5,226.5 C 1141.58,225.25 1142.24,224.417 1143.5,224C 1148.85,223.229 1154.19,222.395 1159.5,221.5C 1159.5,222.5 1159.5,223.5 1159.5,224.5C 1166.09,224.811 1172.59,224.478 1179,223.5C 1179.5,213.506 1179.67,203.506 1179.5,193.5C 1175.78,192.152 1172.11,190.652 1168.5,189C 1164.21,188.088 1159.87,187.421 1155.5,187C 1143.66,186.963 1131.99,186.797 1120.5,186.5C 1135.79,184.05 1151.12,183.883 1166.5,186C 1173.43,187.193 1178.6,190.693 1182,196.5C 1182.5,206.161 1182.67,215.828 1182.5,225.5C 1176.87,225.761 1171.2,226.094 1165.5,226.5C 1162.82,225.926 1160.16,225.259 1157.5,224.5C 1158.51,223.604 1158.51,222.938 1157.5,222.5C 1152.36,224.661 1147.03,225.995 1141.5,226.5 Z"/></g>
<g><path style="opacity:1" fill="#2cd972" d="M 1521.5,195.5 C 1523.95,195.085 1525.28,196.085 1525.5,198.5C 1525.41,200.425 1524.41,201.592 1522.5,202C 1508.49,202.167 1494.49,202.667 1480.5,203.5C 1480.62,204.107 1480.96,204.44 1481.5,204.5C 1481.5,204.833 1481.5,205.167 1481.5,205.5C 1478.16,207.524 1477,210.524 1478,214.5C 1478.9,215.701 1480.07,216.535 1481.5,217C 1496.5,217.333 1511.5,217.667 1526.5,218C 1528.19,219.401 1528.86,221.234 1528.5,223.5C 1506.83,223.5 1485.17,223.5 1463.5,223.5C 1462.83,223.5 1462.5,223.167 1462.5,222.5C 1462.5,206.5 1462.5,190.5 1462.5,174.5C 1482.5,174.333 1502.5,174.5 1522.5,175C 1524.11,176.049 1524.77,177.549 1524.5,179.5C 1509.5,179.333 1494.5,179.5 1479.5,180C 1477.75,181.606 1476.75,183.606 1476.5,186C 1474.07,191.03 1475.41,194.364 1480.5,196C 1494.15,195.716 1507.82,195.549 1521.5,195.5 Z"/></g>
<g><path style="opacity:0.424" fill="#234b33" d="M 314.5,182.5 C 317.748,183.929 319.081,186.429 318.5,190C 319.018,193.978 317.352,196.478 313.5,197.5C 313.5,196.167 313.5,194.833 313.5,193.5C 314.5,193.5 315.5,193.5 316.5,193.5C 316.887,189.556 316.22,185.889 314.5,182.5 Z"/></g>
<g><path style="opacity:0.099" fill="#a8a8a8" d="M 984.5,197.5 C 977.003,194.667 969.336,194 961.5,195.5C 961.611,194.883 961.944,194.383 962.5,194C 969.84,193.628 977.173,193.795 984.5,194.5C 984.5,195.5 984.5,196.5 984.5,197.5 Z"/></g>
<g><path style="opacity:0.678" fill="#bbbbbb" d="M 1118.5,187.5 C 1116.42,190.084 1114.09,192.584 1111.5,195C 1121.49,195.51 1131.32,195.01 1141,193.5C 1145.89,193.507 1150.39,194.174 1154.5,195.5C 1146.83,194.125 1139.16,194.291 1131.5,196C 1130.33,196.419 1129.33,197.085 1128.5,198C 1121.17,198.5 1113.84,198.666 1106.5,198.5C 1106.26,196.533 1106.59,194.699 1107.5,193C 1110.91,190.628 1114.58,188.795 1118.5,187.5 Z"/></g>
<g><path style="opacity:0.267" fill="#206039" d="M 1459.5,171.5 C 1483.18,171.167 1506.84,171.5 1530.5,172.5C 1531.13,173.417 1531.46,174.417 1531.5,175.5C 1529.91,175.372 1528.58,174.705 1527.5,173.5C 1505.17,172.334 1482.84,172.167 1460.5,173C 1459.19,191.128 1459.19,207.294 1460.5,221.5C 1461.17,221.833 1461.83,222.167 1462.5,222.5C 1462.5,223.167 1462.83,223.5 1463.5,223.5C 1485.34,224.828 1507.34,224.828 1529.5,223.5C 1530.39,220.916 1530.73,218.249 1530.5,215.5C 1532.4,218.337 1533.07,221.671 1532.5,225.5C 1507.91,225.514 1483.24,225.514 1458.5,225.5C 1458.18,207.423 1458.51,189.423 1459.5,171.5 Z"/></g>
<g><path style="opacity:0.323" fill="#26633d" d="M 1332.5,172.5 C 1332.82,190.243 1332.49,207.91 1331.5,225.5C 1323.9,225.591 1315.9,225.591 1307.5,225.5C 1307.33,207.83 1307.5,190.164 1308,172.5C 1316.26,171.172 1324.43,171.172 1332.5,172.5 Z"/></g>
<g><path style="opacity:0.008" fill="#0b0b0b" d="M 771.5,197.5 C 772.995,197.415 773.995,198.081 774.5,199.5C 761.769,200.813 749.769,200.813 738.5,199.5C 749.838,199.667 761.172,199.5 772.5,199C 771.944,198.617 771.611,198.117 771.5,197.5 Z"/></g>
<g><path style="opacity:0.89" fill="#34b66b" d="M 1392.5,180.5 C 1400.96,179.598 1408.96,181.098 1416.5,185C 1425.37,190.609 1427.54,198.109 1423,207.5C 1418.82,211.389 1413.99,214.056 1408.5,215.5C 1412.57,211.941 1417.07,208.941 1422,206.5C 1423.1,204.242 1423.94,201.909 1424.5,199.5C 1423.47,196.486 1422.47,193.486 1421.5,190.5C 1420.45,190.649 1419.45,190.483 1418.5,190C 1415.37,186.271 1411.37,184.437 1406.5,184.5C 1401.2,183.806 1395.86,183.472 1390.5,183.5C 1383.69,182.509 1376.69,182.175 1369.5,182.5C 1369.5,193.5 1369.5,204.5 1369.5,215.5C 1377.68,215.826 1385.68,215.492 1393.5,214.5C 1395.17,214.5 1396.83,214.5 1398.5,214.5C 1401.19,214.564 1403.86,214.897 1406.5,215.5C 1402.17,216.167 1397.83,216.833 1393.5,217.5C 1384.83,217.5 1376.17,217.5 1367.5,217.5C 1367.33,205.829 1367.5,194.162 1368,182.5C 1369.07,181.809 1370.23,181.309 1371.5,181C 1378.49,180.5 1385.49,180.334 1392.5,180.5 Z M 1372.5,183.5 C 1378.5,183.5 1384.5,183.5 1390.5,183.5C 1395.86,183.472 1401.2,183.806 1406.5,184.5C 1412.82,186.181 1417.49,190.014 1420.5,196C 1420.58,201.844 1418.24,206.51 1413.5,210C 1408.52,211.99 1403.52,213.49 1398.5,214.5C 1396.83,214.5 1395.17,214.5 1393.5,214.5C 1386.5,214.5 1379.5,214.5 1372.5,214.5C 1373.83,204.167 1373.83,193.833 1372.5,183.5 Z"/></g>
<g><path style="opacity:0.456" fill="#2c6b43" d="M 1390.5,183.5 C 1384.5,183.5 1378.5,183.5 1372.5,183.5C 1371.17,193.833 1371.17,204.167 1372.5,214.5C 1379.5,214.5 1386.5,214.5 1393.5,214.5C 1385.68,215.492 1377.68,215.826 1369.5,215.5C 1369.5,204.5 1369.5,193.5 1369.5,182.5C 1376.69,182.175 1383.69,182.509 1390.5,183.5 Z"/></g>
<g><path style="opacity:0.047" fill="#000000" d="M 1372.5,183.5 C 1373.83,193.833 1373.83,204.167 1372.5,214.5C 1371.17,204.167 1371.17,193.833 1372.5,183.5 Z"/></g>
<g><path style="opacity:0.082" fill="#173020" d="M 1441.5,188.5 C 1442.79,189.058 1443.62,190.058 1444,191.5C 1445.89,196.487 1445.89,201.487 1444,206.5C 1443.29,207.381 1442.46,208.047 1441.5,208.5C 1441.68,205.023 1442.34,201.69 1443.5,198.5C 1443.15,195.087 1442.48,191.754 1441.5,188.5 Z"/></g>
<g><path style="opacity:0.404" fill="#2a6e3c" d="M 363.5,195.5 C 357.557,198.931 351.224,201.597 344.5,203.5C 345.716,201.549 347.382,200.049 349.5,199C 354.128,197.51 358.794,196.343 363.5,195.5 Z"/></g>
<g><path style="opacity:0.91" fill="#489b65" d="M 212.5,194.5 C 215.518,194.335 218.518,194.502 221.5,195C 227.968,198.209 234.635,200.709 241.5,202.5C 241.649,201.448 241.483,200.448 241,199.5C 238.882,198.717 237.382,197.384 236.5,195.5C 240.032,196.733 243.532,198.067 247,199.5C 247.72,201.112 247.554,202.612 246.5,204C 241.044,206.099 235.711,205.766 230.5,203C 224.44,200.049 218.44,197.215 212.5,194.5 Z"/></g>
<g><path style="opacity:0.776" fill="#2d7a4e" d="M 346.5,193.5 C 346.297,195.044 345.63,196.378 344.5,197.5C 341.407,198.685 338.407,200.019 335.5,201.5C 335.709,202.086 336.043,202.586 336.5,203C 339.146,203.497 341.813,203.664 344.5,203.5C 344.082,204.222 343.416,204.722 342.5,205C 339.5,205.667 336.5,205.667 333.5,205C 330.213,204.255 329.213,202.422 330.5,199.5C 335.844,197.493 341.178,195.493 346.5,193.5 Z"/></g>
<g><path style="opacity:0.217" fill="#4d4d4d" d="M 791.5,193.5 C 796.402,197.306 798.569,202.306 798,208.5C 797.329,209.252 796.496,209.586 795.5,209.5C 795.5,206.167 795.5,202.833 795.5,199.5C 794.5,199.5 793.5,199.5 792.5,199.5C 792.483,197.435 792.15,195.435 791.5,193.5 Z"/></g>
<g><path style="opacity:0.141" fill="#3a3a3a" d="M 928.5,196.5 C 926.249,202.02 925.916,207.687 927.5,213.5C 922.663,207.734 922.996,202.067 928.5,196.5 Z"/></g>
<g><path style="opacity:0.282" fill="#808080" d="M 1003.5,192.5 C 1006.86,193.855 1009.19,196.189 1010.5,199.5C 1010.5,203.5 1010.5,207.5 1010.5,211.5C 1010.26,213.404 1009.26,214.738 1007.5,215.5C 1009.03,210.308 1009.7,204.974 1009.5,199.5C 1008.5,199.5 1007.5,199.5 1006.5,199.5C 1006.28,196.744 1005.28,194.41 1003.5,192.5 Z"/></g>
<g><path style="opacity:0.125" fill="#3a9565" d="M 1482.5,193.5 C 1497.5,193.333 1512.5,193.5 1527.5,194C 1528.83,197 1528.83,200 1527.5,203C 1511.99,203.169 1496.66,203.669 1481.5,204.5C 1480.96,204.44 1480.62,204.107 1480.5,203.5C 1494.49,202.667 1508.49,202.167 1522.5,202C 1524.41,201.592 1525.41,200.425 1525.5,198.5C 1525.28,196.085 1523.95,195.085 1521.5,195.5C 1508.5,194.833 1495.5,194.167 1482.5,193.5 Z"/></g>
<g><path style="opacity:0.451" fill="#a6a6a6" d="M 720.5,192.5 C 718.954,194.882 718.287,197.549 718.5,200.5C 717.5,200.5 716.5,200.5 715.5,200.5C 715.303,205.974 715.969,211.308 717.5,216.5C 708.914,207.342 709.914,199.342 720.5,192.5 Z"/></g>
<g><path style="opacity:0.816" fill="#b4b4b4" d="M 958.5,195.5 C 956.574,196.486 954.574,197.486 952.5,198.5C 946.453,202.569 946.119,206.902 951.5,211.5C 953.537,212.846 955.537,214.18 957.5,215.5C 954.368,215.216 951.368,214.383 948.5,213C 943.242,202.381 946.575,196.547 958.5,195.5 Z"/></g>
<g><path style="opacity:0.362" fill="#555555" d="M 952.5,198.5 C 950.279,202.623 949.946,206.957 951.5,211.5C 946.119,206.902 946.453,202.569 952.5,198.5 Z"/></g>
<g><path style="opacity:0.239" fill="#2a874e" d="M 1406.5,184.5 C 1411.37,184.437 1415.37,186.271 1418.5,190C 1419.45,190.483 1420.45,190.649 1421.5,190.5C 1422.47,193.486 1423.47,196.486 1424.5,199.5C 1423.94,201.909 1423.1,204.242 1422,206.5C 1417.07,208.941 1412.57,211.941 1408.5,215.5C 1407.83,215.5 1407.17,215.5 1406.5,215.5C 1403.86,214.897 1401.19,214.564 1398.5,214.5C 1403.52,213.49 1408.52,211.99 1413.5,210C 1418.24,206.51 1420.58,201.844 1420.5,196C 1417.49,190.014 1412.82,186.181 1406.5,184.5 Z"/></g>
<g><path style="opacity:0.267" fill="#727272" d="M 699.5,199.5 C 696.72,204.457 693.053,208.457 688.5,211.5C 689.829,209.198 691.162,206.864 692.5,204.5C 695.015,203.8 695.682,202.467 694.5,200.5C 696.045,199.548 697.712,199.215 699.5,199.5 Z"/></g>
<g><path style="opacity:0.082" fill="#2d2d2d" d="M 984.5,198.5 C 985.583,198.539 986.583,198.873 987.5,199.5C 988.659,203.122 988.825,206.789 988,210.5C 987.292,211.381 986.458,212.047 985.5,212.5C 987.14,207.592 986.807,202.925 984.5,198.5 Z"/></g>
<g><path style="opacity:0.124" fill="#1e1e1e" d="M 1010.5,199.5 C 1011.97,201.117 1012.64,203.117 1012.5,205.5C 1012.64,207.883 1011.97,209.883 1010.5,211.5C 1010.5,207.5 1010.5,203.5 1010.5,199.5 Z"/></g>
<g><path style="opacity:0.247" fill="#5c5c5c" d="M 657.5,199.5 C 661.203,202.385 664.037,206.052 666,210.5C 666.66,208.676 667.827,207.343 669.5,206.5C 668.549,208.472 667.549,210.472 666.5,212.5C 662.852,211.527 661.186,209.193 661.5,205.5C 660.5,205.5 659.5,205.5 658.5,205.5C 658.483,203.435 658.15,201.435 657.5,199.5 Z"/></g>
<g><path style="opacity:0.063" fill="#4f4f4f" d="M 808.5,204.5 C 809.496,204.414 810.329,204.748 811,205.5C 812.295,208.292 813.795,210.958 815.5,213.5C 812.107,211.428 809.774,208.428 808.5,204.5 Z"/></g>
<g><path style="opacity:0.843" fill="#cfcfcf" d="M 1156.5,195.5 C 1157.83,195.5 1159.17,195.5 1160.5,195.5C 1160.74,197.467 1160.41,199.301 1159.5,201C 1146.03,201.954 1132.7,203.287 1119.5,205C 1115.48,205.919 1111.82,207.586 1108.5,210C 1107.17,213 1107.17,216 1108.5,219C 1114.92,221.554 1121.26,224.054 1127.5,226.5C 1118.8,226.6 1111.13,223.933 1104.5,218.5C 1103.03,214.54 1103.53,210.873 1106,207.5C 1110.25,205.082 1114.75,203.248 1119.5,202C 1132.11,200.338 1144.78,199.338 1157.5,199C 1157.96,198.586 1158.29,198.086 1158.5,197.5C 1157.76,196.818 1157.09,196.151 1156.5,195.5 Z"/></g>
<g><path style="opacity:0.574" fill="#37a462" d="M 1315.5,173.5 C 1320.34,172.044 1325.18,172.377 1330,174.5C 1330.67,190.833 1330.67,207.167 1330,223.5C 1323.67,224.833 1317.33,224.833 1311,223.5C 1310.33,207.167 1310.33,190.833 1311,174.5C 1312.01,173.663 1313.18,173.33 1314.5,173.5C 1313.83,174.267 1312.99,174.934 1312,175.5C 1311.33,190.833 1311.33,206.167 1312,221.5C 1314.38,222.766 1317.05,223.432 1320,223.5C 1322.89,223.453 1325.72,223.12 1328.5,222.5C 1329.67,207.178 1329.83,191.844 1329,176.5C 1328.1,175.299 1326.93,174.465 1325.5,174C 1322.18,173.502 1318.85,173.335 1315.5,173.5 Z"/></g>
<g><path style="opacity:1" fill="#35c972" d="M 1314.5,173.5 C 1314.83,173.5 1315.17,173.5 1315.5,173.5C 1318.85,173.335 1322.18,173.502 1325.5,174C 1326.93,174.465 1328.1,175.299 1329,176.5C 1329.83,191.844 1329.67,207.178 1328.5,222.5C 1325.72,223.12 1322.89,223.453 1320,223.5C 1317.05,223.432 1314.38,222.766 1312,221.5C 1311.33,206.167 1311.33,190.833 1312,175.5C 1312.99,174.934 1313.83,174.267 1314.5,173.5 Z"/></g>
<g><path style="opacity:1" fill="#25d96e" d="M 1314.5,175.5 C 1318.5,175.5 1322.5,175.5 1326.5,175.5C 1326.5,191.167 1326.5,206.833 1326.5,222.5C 1322.56,222.793 1318.73,222.46 1315,221.5C 1314.5,206.17 1314.33,190.837 1314.5,175.5 Z"/></g>
<g><path style="opacity:0.123" fill="#cfcfcf" d="M 791.5,193.5 C 792.15,195.435 792.483,197.435 792.5,199.5C 793.5,199.5 794.5,199.5 795.5,199.5C 795.5,202.833 795.5,206.167 795.5,209.5C 775.831,209.333 756.164,209.5 736.5,210C 739.688,213.594 743.688,215.594 748.5,216C 754.218,216.74 759.885,216.573 765.5,215.5C 765.423,216.75 764.756,217.583 763.5,218C 756.144,218.727 748.811,218.56 741.5,217.5C 738.876,215.899 736.21,214.232 733.5,212.5C 732.548,210.955 732.215,209.288 732.5,207.5C 752.833,207.5 773.167,207.5 793.5,207.5C 793.808,205.076 793.474,202.743 792.5,200.5C 790.412,198.572 788.912,196.239 788,193.5C 786.2,191.683 784.034,190.516 781.5,190C 772.906,189.346 764.406,188.18 756,186.5C 744.549,188.288 733.049,190.288 721.5,192.5C 732.016,186.233 743.516,183.567 756,184.5C 768.929,183.524 780.763,186.524 791.5,193.5 Z"/></g>
<g><path style="opacity:0.892" fill="#b8b8b8" d="M 634.5,201.5 C 637.041,203.599 640.041,204.932 643.5,205.5C 644.167,207.5 644.833,209.5 645.5,211.5C 646.5,211.5 647.5,211.5 648.5,211.5C 648.351,212.552 648.517,213.552 649,214.5C 651.931,216.762 654.097,219.595 655.5,223C 662.192,223.831 668.858,223.664 675.5,222.5C 678.228,219.47 681.562,217.47 685.5,216.5C 682.949,221.887 678.782,225.221 673,226.5C 668.154,225.192 663.32,225.192 658.5,226.5C 655.477,226.185 653.144,224.852 651.5,222.5C 651.804,221.85 652.137,221.183 652.5,220.5C 650.118,218.443 647.785,216.443 645.5,214.5C 641.487,210.485 637.821,206.152 634.5,201.5 Z"/></g>
<g><path style="opacity:0.22" fill="#999999" d="M 832.5,201.5 C 834.572,204.612 836.905,207.612 839.5,210.5C 843.053,212.239 846.72,213.572 850.5,214.5C 848.372,215.629 846.039,215.796 843.5,215C 840.952,212.558 837.952,210.892 834.5,210C 833.287,207.313 832.62,204.48 832.5,201.5 Z"/></g>
<g><path style="opacity:1" fill="#25da6f" d="M 332.5,213.5 C 334.374,214.63 336.374,215.63 338.5,216.5C 343.67,223.495 342.003,227.828 333.5,229.5C 301.833,229.5 270.167,229.5 238.5,229.5C 237.849,227.174 237.182,224.841 236.5,222.5C 237.527,219.947 239.193,217.78 241.5,216C 248.499,211.66 256.166,208.993 264.5,208C 280.833,207.333 297.167,207.333 313.5,208C 319.922,209.778 326.256,211.612 332.5,213.5 Z"/></g>
<g><path style="opacity:0.043" fill="#575757" d="M 912.5,211.5 C 910.786,214.213 908.453,216.213 905.5,217.5C 906.011,215.805 906.678,214.139 907.5,212.5C 908.086,212.709 908.586,213.043 909,213.5C 909.71,212.027 910.876,211.36 912.5,211.5 Z"/></g>
<g><path style="opacity:1" fill="#2dd372" d="M 1418.5,175.5 C 1421.78,175.928 1424.78,176.928 1427.5,178.5C 1427.37,179.239 1427.54,179.906 1428,180.5C 1430.49,182.157 1432.99,183.824 1435.5,185.5C 1441.78,192.989 1442.11,200.656 1436.5,208.5C 1435.5,209.167 1434.5,209.833 1433.5,210.5C 1434.6,207.164 1435.77,203.83 1437,200.5C 1437.67,197.833 1437.67,195.167 1437,192.5C 1434.06,190.777 1430.89,189.777 1427.5,189.5C 1426.77,186.728 1426.6,184.061 1427,181.5C 1424.11,180.406 1421.28,179.24 1418.5,178C 1398.57,175.557 1378.57,174.89 1358.5,176C 1356.59,176.408 1355.59,177.575 1355.5,179.5C 1356.27,186.805 1356.77,194.138 1357,201.5C 1357.87,202.108 1358.37,202.941 1358.5,204C 1355.99,208.493 1356.49,212.66 1360,216.5C 1361.31,215.228 1362.81,214.228 1364.5,213.5C 1365.81,202.774 1365.81,192.107 1364.5,181.5C 1365.38,180.749 1366.38,180.249 1367.5,180C 1376.01,179.177 1384.34,179.343 1392.5,180.5C 1385.49,180.334 1378.49,180.5 1371.5,181C 1370.23,181.309 1369.07,181.809 1368,182.5C 1367.5,194.162 1367.33,205.829 1367.5,217.5C 1376.17,217.5 1384.83,217.5 1393.5,217.5C 1381.27,218.177 1368.94,219.343 1356.5,221C 1357.74,221.232 1358.74,221.732 1359.5,222.5C 1357.47,222.662 1355.47,222.495 1353.5,222C 1353.04,221.586 1352.71,221.086 1352.5,220.5C 1353.79,214.003 1354.46,207.336 1354.5,200.5C 1354.33,194.167 1354.17,187.833 1354,181.5C 1353.13,180.892 1352.63,180.059 1352.5,179C 1353.43,177.923 1354.1,176.756 1354.5,175.5C 1361.3,174.169 1368.47,173.503 1376,173.5C 1390.21,173.493 1404.37,174.16 1418.5,175.5 Z"/></g>
<g><path style="opacity:0.571" fill="#bfbfbf" d="M 786.5,212.5 C 788.292,213.309 790.292,213.809 792.5,214C 793.337,215.011 793.67,216.178 793.5,217.5C 784.955,222.904 775.622,225.904 765.5,226.5C 765.5,225.5 765.5,224.5 765.5,223.5C 773.299,222.352 780.966,220.518 788.5,218C 788.957,217.586 789.291,217.086 789.5,216.5C 782.866,215.503 776.2,215.17 769.5,215.5C 774.507,211.387 780.173,210.387 786.5,212.5 Z"/></g>
<g><path style="opacity:0.963" fill="#3fb76f" d="M 1354.5,175.5 C 1354.1,176.756 1353.43,177.923 1352.5,179C 1352.63,180.059 1353.13,180.892 1354,181.5C 1354.17,187.833 1354.33,194.167 1354.5,200.5C 1354.46,207.336 1353.79,214.003 1352.5,220.5C 1352.71,221.086 1353.04,221.586 1353.5,222C 1355.47,222.495 1357.47,222.662 1359.5,222.5C 1376.17,222.667 1392.84,222.5 1409.5,222C 1412.83,221.333 1416.17,220.667 1419.5,220C 1424.41,217.058 1429.07,213.891 1433.5,210.5C 1434.5,209.833 1435.5,209.167 1436.5,208.5C 1434.72,210.948 1433.38,213.615 1432.5,216.5C 1427.65,219.585 1422.31,221.585 1416.5,222.5C 1402.88,223.974 1389.22,224.64 1375.5,224.5C 1366.47,224.498 1357.81,223.831 1349.5,222.5C 1349.5,207.5 1349.5,192.5 1349.5,177.5C 1351.28,177.107 1352.95,176.441 1354.5,175.5 Z"/></g>
<g><path style="opacity:0.471" fill="#d6d6d6" d="M 576.5,215.5 C 576.5,218.5 576.5,221.5 576.5,224.5C 552.498,224.667 528.498,224.5 504.5,224C 503.901,222.378 503.234,220.878 502.5,219.5C 502.5,203.5 502.5,187.5 502.5,171.5C 510.528,171.169 518.528,171.502 526.5,172.5C 527.833,186.5 527.833,200.5 526.5,214.5C 543.153,215.499 559.82,215.833 576.5,215.5 Z"/></g>
<g><path style="opacity:0.967" fill="#fcfcfc" d="M 506.5,174.5 C 511.762,174.195 516.928,174.529 522,175.5C 522.176,189.408 522.676,203.242 523.5,217C 540.497,217.5 557.497,217.667 574.5,217.5C 574.5,219.5 574.5,221.5 574.5,223.5C 551.455,223.823 528.455,223.49 505.5,222.5C 504.825,208.937 504.158,195.437 503.5,182C 504.273,179.403 505.273,176.903 506.5,174.5 Z"/></g>
<g><path style="opacity:0.024" fill="#3f3f3f" d="M 786.5,212.5 C 789.518,212.335 792.518,212.502 795.5,213C 797.056,215.501 796.389,217.001 793.5,217.5C 793.67,216.178 793.337,215.011 792.5,214C 790.292,213.809 788.292,213.309 786.5,212.5 Z"/></g>
<g><path style="opacity:0.2" fill="#7f7f7f" d="M 1142.5,217.5 C 1147.61,216.8 1152.61,215.3 1157.5,213C 1157.5,211.601 1157.83,210.101 1158.5,208.5C 1157.3,207.708 1155.97,207.708 1154.5,208.5C 1155.34,206.241 1157.01,205.241 1159.5,205.5C 1160.01,209.007 1159.34,212.174 1157.5,215C 1152.69,216.893 1147.69,217.727 1142.5,217.5 Z"/></g>
<g><path style="opacity:0.475" fill="#47b574" d="M 1481.5,205.5 C 1481.5,208.833 1481.5,212.167 1481.5,215.5C 1497.83,215.5 1514.17,215.5 1530.5,215.5C 1530.73,218.249 1530.39,220.916 1529.5,223.5C 1507.34,224.828 1485.34,224.828 1463.5,223.5C 1485.17,223.5 1506.83,223.5 1528.5,223.5C 1528.86,221.234 1528.19,219.401 1526.5,218C 1511.5,217.667 1496.5,217.333 1481.5,217C 1480.07,216.535 1478.9,215.701 1478,214.5C 1477,210.524 1478.16,207.524 1481.5,205.5 Z"/></g>
<g><path style="opacity:0.137" fill="#474747" d="M 645.5,214.5 C 647.785,216.443 650.118,218.443 652.5,220.5C 652.137,221.183 651.804,221.85 651.5,222.5C 649.016,220.2 647.016,217.533 645.5,214.5 Z"/></g>
<g><path style="opacity:0.592" fill="#3ba765" d="M 332.5,213.5 C 326.256,211.612 319.922,209.778 313.5,208C 297.167,207.333 280.833,207.333 264.5,208C 256.166,208.993 248.499,211.66 241.5,216C 239.193,217.78 237.527,219.947 236.5,222.5C 237.182,224.841 237.849,227.174 238.5,229.5C 270.167,229.5 301.833,229.5 333.5,229.5C 316.167,230.167 298.833,230.833 281.5,231.5C 268.496,231.667 255.496,231.5 242.5,231C 236.632,231.244 232.632,228.744 230.5,223.5C 235.118,215.342 242.118,210.342 251.5,208.5C 272.428,206.446 293.428,205.946 314.5,207C 321.16,207.717 327.16,209.883 332.5,213.5 Z"/></g>
<g><path style="opacity:0.616" fill="#b6b6b6" d="M 1278.5,193.5 C 1282.48,196.613 1284.81,200.779 1285.5,206C 1284.32,209.175 1283.15,212.342 1282,215.5C 1274.03,221.995 1264.86,225.661 1254.5,226.5C 1254.41,225.504 1254.75,224.671 1255.5,224C 1264.42,222.583 1272.42,219.083 1279.5,213.5C 1280.82,206.724 1280.48,200.057 1278.5,193.5 Z"/></g>
<g><path style="opacity:0.396" fill="#999999" d="M 726.5,221.5 C 730.163,221.952 733.83,222.452 737.5,223C 741.221,223.672 744.555,224.839 747.5,226.5C 740.075,226.205 733.075,224.539 726.5,221.5 Z"/></g>
<g><path style="opacity:0.4" fill="#919191" d="M 893.5,222.5 C 887.126,224.748 880.459,226.081 873.5,226.5C 879.677,223.931 886.344,222.598 893.5,222.5 Z"/></g>
<g><path style="opacity:0.737" fill="#c3c3c3" d="M 931.5,194.5 C 930.957,198.342 929.957,202.009 928.5,205.5C 928.667,206.5 928.833,207.5 929,208.5C 931.256,210.383 932.923,212.717 934,215.5C 940.117,220.269 947.117,222.936 955,223.5C 956.376,223.684 957.209,224.351 957.5,225.5C 945.652,225.724 935.652,221.724 927.5,213.5C 925.916,207.687 926.249,202.02 928.5,196.5C 929.29,195.599 930.29,194.932 931.5,194.5 Z"/></g>
<g><path style="opacity:0.234" fill="#979797" d="M 576.5,215.5 C 577.777,216.694 578.444,218.36 578.5,220.5C 578.588,222.712 578.088,224.712 577,226.5C 553.014,225.189 529.014,225.189 505,226.5C 501.337,225.174 500.504,222.841 502.5,219.5C 503.234,220.878 503.901,222.378 504.5,224C 528.498,224.5 552.498,224.667 576.5,224.5C 576.5,221.5 576.5,218.5 576.5,215.5 Z"/></g>
<g><path style="opacity:0.224" fill="#7c7c7c" d="M 612.5,185.5 C 613.464,198.784 613.797,212.117 613.5,225.5C 605.8,225.681 598.133,225.681 590.5,225.5C 590.167,212.15 590.501,198.817 591.5,185.5C 598.53,184.17 605.53,184.17 612.5,185.5 Z"/></g>
<g><path style="opacity:0.979" fill="#fafafa" d="M 591.5,187.5 C 598.167,187.5 604.833,187.5 611.5,187.5C 611.5,199.833 611.5,212.167 611.5,224.5C 604.833,224.5 598.167,224.5 591.5,224.5C 591.5,212.167 591.5,199.833 591.5,187.5 Z"/></g>
<g><path style="opacity:0.236" fill="#727272" d="M 1024.5,179.5 C 1025.5,194.324 1025.83,209.324 1025.5,224.5C 1033.5,224.5 1041.5,224.5 1049.5,224.5C 1047.32,225.266 1044.98,225.933 1042.5,226.5C 1036.5,226.166 1030.5,225.833 1024.5,225.5C 1024.5,210.167 1024.5,194.833 1024.5,179.5 Z"/></g>
<g><path style="opacity:0.236" fill="#797979" d="M 1090.5,172.5 C 1091.66,189.662 1091.83,206.995 1091,224.5C 1089.33,225.167 1087.67,225.833 1086,226.5C 1081.93,225.659 1077.76,225.326 1073.5,225.5C 1078.64,224.512 1083.97,224.179 1089.5,224.5C 1089.17,206.992 1089.5,189.659 1090.5,172.5 Z"/></g>
<g><path style="opacity:0.135" fill="#888888" d="M 1198.5,225.5 C 1206.17,224.167 1213.83,224.167 1221.5,225.5C 1214.1,225.522 1206.43,225.522 1198.5,225.5 Z"/></g>
<g><path style="opacity:0.235" fill="#317b4e" d="M 1349.5,222.5 C 1357.81,223.831 1366.47,224.498 1375.5,224.5C 1389.22,224.64 1402.88,223.974 1416.5,222.5C 1413.74,223.761 1410.74,224.594 1407.5,225C 1401.78,225.211 1396.12,225.711 1390.5,226.5C 1376.22,225.665 1362.22,225.332 1348.5,225.5C 1348.26,224.209 1348.6,223.209 1349.5,222.5 Z"/></g>
<g><path style="opacity:0.078" fill="#1c3b2b" d="M 363.5,226.5 C 358.976,226.204 356.31,228.204 355.5,232.5C 353.418,231.415 353.084,229.915 354.5,228C 357.48,226.028 360.48,225.528 363.5,226.5 Z"/></g>
<g><path style="opacity:0.063" fill="#3b8356" d="M 281.5,231.5 C 298.833,230.833 316.167,230.167 333.5,229.5C 342.003,227.828 343.67,223.495 338.5,216.5C 336.374,215.63 334.374,214.63 332.5,213.5C 327.16,209.883 321.16,207.717 314.5,207C 293.428,205.946 272.428,206.446 251.5,208.5C 256.461,206.214 261.794,205.047 267.5,205C 281.167,204.333 294.833,204.333 308.5,205C 321.756,205.637 333.422,210.137 343.5,218.5C 348.095,224.141 346.762,227.975 339.5,230C 320.213,231.436 300.88,231.936 281.5,231.5 Z"/></g>
<g><path style="opacity:0.727" fill="#40a568" d="M 439.5,246.5 C 439.777,243.552 439.444,240.719 438.5,238C 435.562,236.355 432.895,234.355 430.5,232C 414.487,227.589 398.32,227.422 382,231.5C 374.94,229.463 367.773,229.13 360.5,230.5C 365.043,232.759 369.709,234.426 374.5,235.5C 373.508,235.328 372.842,235.662 372.5,236.5C 366.683,235.294 361.016,233.961 355.5,232.5C 356.31,228.204 358.976,226.204 363.5,226.5C 369.185,227.337 374.852,228.337 380.5,229.5C 394.61,225.259 408.943,224.426 423.5,227C 429.643,228.654 435.143,231.488 440,235.5C 442.093,239.523 441.927,243.19 439.5,246.5 Z"/></g>
<g><path style="opacity:0.627" fill="#35794e" d="M 234.5,248.5 C 238.272,245.773 242.272,243.273 246.5,241C 247.337,239.989 247.67,238.822 247.5,237.5C 240.531,238.242 233.864,239.909 227.5,242.5C 233.033,238.874 239.033,236.207 245.5,234.5C 247.5,235 249.5,235.5 251.5,236C 252.833,238 252.833,240 251.5,242C 245.737,244.085 240.07,246.252 234.5,248.5 Z"/></g>
<g><path style="opacity:0.29" fill="#153721" d="M 374.5,235.5 C 371.909,239.868 371.909,244.201 374.5,248.5C 370.145,246.597 368.645,243.264 370,238.5C 370.995,237.934 371.828,237.267 372.5,236.5C 372.842,235.662 373.508,235.328 374.5,235.5 Z"/></g>
<g><path style="opacity:1" fill="#25da70" d="M 439.5,246.5 C 439.5,247.167 439.167,247.5 438.5,247.5C 434.702,248.477 431.036,249.81 427.5,251.5C 420.397,253.694 413.064,254.694 405.5,254.5C 400.111,254.513 394.778,254.013 389.5,253C 386.277,250.459 382.61,248.959 378.5,248.5C 376.288,244.312 374.955,239.979 374.5,235.5C 369.709,234.426 365.043,232.759 360.5,230.5C 367.773,229.13 374.94,229.463 382,231.5C 398.32,227.422 414.487,227.589 430.5,232C 432.895,234.355 435.562,236.355 438.5,238C 439.444,240.719 439.777,243.552 439.5,246.5 Z"/></g>
<g><path style="opacity:0.89" fill="#26854c" d="M 227.5,242.5 C 224.498,247.981 219.831,249.981 213.5,248.5C 217.866,245.988 222.533,243.988 227.5,242.5 Z"/></g>
<g><path style="opacity:0.435" fill="#e6e7e6" d="M 508.5,246.5 C 513.927,246.218 519.26,246.551 524.5,247.5C 525.406,248.965 526.739,249.965 528.5,250.5C 529.386,251.325 529.719,252.325 529.5,253.5C 524.934,252.479 520.434,251.145 516,249.5C 513.125,251.906 510.291,251.906 507.5,249.5C 508.127,248.583 508.461,247.583 508.5,246.5 Z"/></g>
<g><path style="opacity:0.941" fill="#369c5e" d="M 317.5,241.5 C 323.407,245.978 328.407,251.311 332.5,257.5C 328.066,254.678 323.566,251.678 319,248.5C 318.56,246.134 318.06,243.801 317.5,241.5 Z"/></g>
<g><path style="opacity:0.031" fill="#272727" d="M 939.5,246.5 C 939.5,246.833 939.5,247.167 939.5,247.5C 938.51,253.31 938.177,259.31 938.5,265.5C 937.305,265.134 936.639,264.301 936.5,263C 937.565,259.195 937.565,255.362 936.5,251.5C 936.667,250.167 936.833,248.833 937,247.5C 937.671,246.748 938.504,246.414 939.5,246.5 Z"/></g>
<g><path style="opacity:0.075" fill="#2b2b2b" d="M 1204.5,246.5 C 1206.68,245.017 1208.02,245.684 1208.5,248.5C 1207.9,250.761 1206.57,252.428 1204.5,253.5C 1205.62,251.021 1205.62,248.688 1204.5,246.5 Z"/></g>
<g><path style="opacity:0.661" fill="#cecece" d="M 876.5,262.5 C 874.513,259.141 874.013,255.475 875,251.5C 876.417,250.922 877.25,249.922 877.5,248.5C 887.138,245.302 896.471,245.969 905.5,250.5C 907.324,254.167 906.158,255.834 902,255.5C 898.365,253.416 894.365,252.083 890,251.5C 887.5,252 885,252.5 882.5,253C 880.78,256.086 881.447,258.419 884.5,260C 888.167,260.667 891.833,260.667 895.5,260C 898.447,257.836 901.781,257.002 905.5,257.5C 905.739,259.467 905.406,261.301 904.5,263C 894.894,267.762 885.561,267.595 876.5,262.5 Z"/></g>
<g><path style="opacity:0.812" fill="#c0c0c0" d="M 949.5,246.5 C 952.448,246.223 955.281,246.556 958,247.5C 958.809,253.749 958.642,259.916 957.5,266C 955.101,266.711 952.768,266.544 950.5,265.5C 949.504,259.202 949.17,252.868 949.5,246.5 Z"/></g>
<g><path style="opacity:0.106" fill="#2e2d27" d="M 691.5,246.5 C 693.69,247.748 694.023,249.414 692.5,251.5C 691.549,250.081 691.216,248.415 691.5,246.5 Z"/></g>
<g><path style="opacity:0.095" fill="#2a2a29" d="M 1175.5,246.5 C 1176.86,247.59 1177.86,248.924 1178.5,250.5C 1178.05,251.458 1177.38,252.292 1176.5,253C 1177.25,253.671 1177.59,254.504 1177.5,255.5C 1179.68,264.49 1176.34,267.99 1167.5,266C 1166.94,265.617 1166.61,265.117 1166.5,264.5C 1169.04,265.649 1171.54,265.649 1174,264.5C 1174.21,258.419 1174.71,252.419 1175.5,246.5 Z"/></g>
<g><path style="opacity:0.622" fill="#eaeaea" d="M 1292.5,246.5 C 1294.83,246.5 1297.17,246.5 1299.5,246.5C 1299.5,252.833 1299.5,259.167 1299.5,265.5C 1297.53,265.739 1295.7,265.406 1294,264.5C 1293.17,258.523 1292.67,252.523 1292.5,246.5 Z"/></g>
<g><path style="opacity:0.276" fill="#6f6f6f" d="M 1286.5,246.5 C 1287.17,246.5 1287.83,246.5 1288.5,246.5C 1288.5,252.833 1288.5,259.167 1288.5,265.5C 1286.62,266.341 1284.62,266.675 1282.5,266.5C 1282.5,266.167 1282.5,265.833 1282.5,265.5C 1283.83,265.5 1285.17,265.5 1286.5,265.5C 1286.5,259.167 1286.5,252.833 1286.5,246.5 Z"/></g>
<g><path style="opacity:0.529" fill="#8b8c8c" d="M 508.5,246.5 C 508.461,247.583 508.127,248.583 507.5,249.5C 510.291,251.906 513.125,251.906 516,249.5C 520.434,251.145 524.934,252.479 529.5,253.5C 529.719,252.325 529.386,251.325 528.5,250.5C 526.739,249.965 525.406,248.965 524.5,247.5C 529.303,247.713 532.303,250.047 533.5,254.5C 532.833,254.5 532.5,254.833 532.5,255.5C 528.698,256.12 525.365,255.286 522.5,253C 518.167,252.333 513.833,252.333 509.5,253C 508.692,253.308 508.025,253.808 507.5,254.5C 508.711,255.72 508.711,256.887 507.5,258C 508.693,259.095 510.027,259.928 511.5,260.5C 509.691,261.291 507.691,261.291 505.5,260.5C 505.46,257.119 505.793,253.786 506.5,250.5C 504.194,250.993 501.861,251.326 499.5,251.5C 502.304,249.595 505.304,247.929 508.5,246.5 Z"/></g>
<g><path style="opacity:0.075" fill="#1f1f1f" d="M 589.5,246.5 C 590.496,246.414 591.329,246.748 592,247.5C 591.777,253.034 591.944,258.534 592.5,264C 590.49,266.501 588.157,267.001 585.5,265.5C 586.833,265.5 588.167,265.5 589.5,265.5C 589.5,259.167 589.5,252.833 589.5,246.5 Z"/></g>
<g><path style="opacity:0.09" fill="#676767" d="M 1114.5,253.5 C 1114.5,255.5 1113.5,256.5 1111.5,256.5C 1111.17,255.167 1110.83,255.167 1110.5,256.5C 1109.17,256.5 1107.83,256.5 1106.5,256.5C 1106.5,257.833 1106.5,259.167 1106.5,260.5C 1105.79,261.404 1104.79,261.737 1103.5,261.5C 1103.5,259.5 1103.5,257.5 1103.5,255.5C 1105.17,255.5 1106.83,255.5 1108.5,255.5C 1108.5,254.167 1108.5,252.833 1108.5,251.5C 1105.71,251.778 1103.21,251.111 1101,249.5C 1099.86,249.989 1098.69,250.322 1097.5,250.5C 1097.5,249.5 1097.5,248.5 1097.5,247.5C 1100.52,247.335 1103.52,247.502 1106.5,248C 1105.17,248.667 1105.17,249.333 1106.5,250C 1108.17,250.333 1109.83,250.667 1111.5,251C 1112.08,252.417 1113.08,253.25 1114.5,253.5 Z"/></g>
<g><path style="opacity:0.46" fill="#d4d4d4" d="M 1330.5,250.5 C 1335.02,251.428 1339.52,251.428 1344,250.5C 1354.71,250.321 1358.54,255.321 1355.5,265.5C 1352.5,265.5 1349.5,265.5 1346.5,265.5C 1346.82,262.428 1346.48,259.428 1345.5,256.5C 1344.58,255.873 1343.58,255.539 1342.5,255.5C 1340.53,255.261 1338.7,255.594 1337,256.5C 1336.5,259.482 1336.34,262.482 1336.5,265.5C 1334.23,265.859 1332.4,265.192 1331,263.5C 1330.5,259.179 1330.33,254.846 1330.5,250.5 Z"/></g>
<g><path style="opacity:0.098" fill="#121212" d="M 1288.5,246.5 C 1289.12,246.611 1289.62,246.944 1290,247.5C 1290.67,253.167 1290.67,258.833 1290,264.5C 1289.62,265.056 1289.12,265.389 1288.5,265.5C 1288.5,259.167 1288.5,252.833 1288.5,246.5 Z"/></g>
<g><path style="opacity:0.184" fill="#777777" d="M 1299.5,246.5 C 1300.82,249.258 1301.48,252.424 1301.5,256C 1301.48,259.576 1300.82,262.742 1299.5,265.5C 1299.5,259.167 1299.5,252.833 1299.5,246.5 Z"/></g>
<g><path style="opacity:0.647" fill="#b7b7b7" d="M 1319.5,245.5 C 1321.59,245.318 1323.59,245.652 1325.5,246.5C 1326.5,253.134 1326.83,259.8 1326.5,266.5C 1318.63,267.617 1315.63,264.117 1317.5,256C 1317.59,252.238 1318.25,248.738 1319.5,245.5 Z"/></g>
<g><path style="opacity:0.659" fill="#807f80" d="M 1399.5,248.5 C 1402.58,250.048 1405.92,251.048 1409.5,251.5C 1411.6,253.592 1413.27,255.925 1414.5,258.5C 1412.18,256.858 1409.85,255.192 1407.5,253.5C 1405.33,252.418 1403.33,252.418 1401.5,253.5C 1400.83,253.833 1400.17,254.167 1399.5,254.5C 1399.5,252.5 1399.5,250.5 1399.5,248.5 Z"/></g>
<g><path style="opacity:0.712" fill="#c8c8c8" d="M 589.5,246.5 C 589.5,252.833 589.5,259.167 589.5,265.5C 588.167,265.5 586.833,265.5 585.5,265.5C 577.09,267.767 569.424,266.433 562.5,261.5C 562.5,259.5 562.5,257.5 562.5,255.5C 568.276,251.044 574.776,249.711 582,251.5C 582.5,251.333 583,251.167 583.5,251C 582.167,249.667 582.167,248.333 583.5,247C 585.473,246.505 587.473,246.338 589.5,246.5 Z M 575.5,255.5 C 578.311,255.826 580.978,256.659 583.5,258C 582.833,258.667 582.167,259.333 581.5,260C 578.518,260.498 575.518,260.665 572.5,260.5C 572.5,259.167 572.5,257.833 572.5,256.5C 573.791,256.737 574.791,256.404 575.5,255.5 Z"/></g>
<g><path style="opacity:0.015" fill="#000000" d="M 771.5,253.5 C 771.5,254.5 771.5,255.5 771.5,256.5C 776.833,256.833 776.833,257.167 771.5,257.5C 770.167,256.167 770.167,254.833 771.5,253.5 Z"/></g>
<g><path style="opacity:0.396" fill="#cecece" d="M 792.5,251.5 C 794.183,255.636 794.85,259.969 794.5,264.5C 791.794,264.425 789.127,264.092 786.5,263.5C 786.5,264.5 786.5,265.5 786.5,266.5C 785.833,266.5 785.167,266.5 784.5,266.5C 780.189,265.595 775.856,264.595 771.5,263.5C 771.5,261.833 771.5,260.167 771.5,258.5C 771.5,258.167 771.5,257.833 771.5,257.5C 776.833,257.167 776.833,256.833 771.5,256.5C 771.5,255.5 771.5,254.5 771.5,253.5C 773.476,251.989 775.809,251.156 778.5,251C 783.204,250.352 787.871,250.519 792.5,251.5 Z"/></g>
<g><path style="opacity:0.762" fill="#dddddd" d="M 997.5,248.5 C 997.281,249.675 997.614,250.675 998.5,251.5C 1003.17,250.331 1007.84,250.497 1012.5,252C 1014.58,252.697 1016.25,253.864 1017.5,255.5C 1017.5,257.167 1017.5,258.833 1017.5,260.5C 1014.63,261.759 1011.63,262.759 1008.5,263.5C 1007.83,263.167 1007.17,262.833 1006.5,262.5C 1009.82,261.841 1011.16,259.841 1010.5,256.5C 1009.5,256.5 1008.5,256.5 1007.5,256.5C 1004.48,256.335 1001.48,256.502 998.5,257C 997.748,257.671 997.414,258.504 997.5,259.5C 996.288,260.23 995.288,261.23 994.5,262.5C 993.431,257.844 993.431,253.178 994.5,248.5C 995.5,248.5 996.5,248.5 997.5,248.5 Z M 1007.5,256.5 C 1008.68,257.688 1008.68,258.855 1007.5,260C 1004.08,260.747 1000.74,260.58 997.5,259.5C 997.414,258.504 997.748,257.671 998.5,257C 1001.48,256.502 1004.48,256.335 1007.5,256.5 Z"/></g>
<g><path style="opacity:0.918" fill="#cdcecd" d="M 1193.5,250.5 C 1194.17,254.5 1192.5,256.167 1188.5,255.5C 1188.22,257.415 1188.55,259.081 1189.5,260.5C 1190.5,260.5 1191.5,260.5 1192.5,260.5C 1192.5,262.167 1192.5,263.833 1192.5,265.5C 1190.5,265.5 1188.5,265.5 1186.5,265.5C 1184.9,265.768 1183.57,265.434 1182.5,264.5C 1182.5,261.5 1182.5,258.5 1182.5,255.5C 1181.5,255.5 1180.5,255.5 1179.5,255.5C 1178.83,255.5 1178.17,255.5 1177.5,255.5C 1177.59,254.504 1177.25,253.671 1176.5,253C 1177.38,252.292 1178.05,251.458 1178.5,250.5C 1180.05,250.179 1180.71,249.179 1180.5,247.5C 1183.52,247.335 1186.52,247.502 1189.5,248C 1188.17,248.667 1188.17,249.333 1189.5,250C 1190.79,250.49 1192.13,250.657 1193.5,250.5 Z"/></g>
<g><path style="opacity:0.075" fill="#bdbfbf" d="M 1204.5,246.5 C 1205.62,248.688 1205.62,251.021 1204.5,253.5C 1201.75,254.664 1199.08,254.997 1196.5,254.5C 1196.5,253.5 1196.5,252.5 1196.5,251.5C 1197.22,247.008 1199.88,245.342 1204.5,246.5 Z"/></g>
<g><path style="opacity:0.235" fill="#2e6742" d="M 213.5,248.5 C 205.351,255.292 196.018,257.292 185.5,254.5C 175.981,253.261 166.314,253.261 156.5,254.5C 160.595,252.994 164.929,251.994 169.5,251.5C 178.538,252.047 187.538,253.047 196.5,254.5C 202.352,252.884 208.019,250.884 213.5,248.5 Z"/></g>
<g><path style="opacity:0.897" fill="#37b86f" d="M 374.5,235.5 C 374.955,239.979 376.288,244.312 378.5,248.5C 382.61,248.959 386.277,250.459 389.5,253C 394.778,254.013 400.111,254.513 405.5,254.5C 413.064,254.694 420.397,253.694 427.5,251.5C 423.824,252.678 420.157,254.178 416.5,256C 407.481,256.642 398.481,256.475 389.5,255.5C 383.808,254.486 378.808,252.152 374.5,248.5C 371.909,244.201 371.909,239.868 374.5,235.5 Z"/></g>
<g><path style="opacity:0.208" fill="#747474" d="M 1065.5,250.5 C 1066.27,251.263 1066.77,252.263 1067,253.5C 1067.71,252.619 1068.54,251.953 1069.5,251.5C 1069.46,252.583 1069.13,253.583 1068.5,254.5C 1072.13,255.463 1075.8,255.463 1079.5,254.5C 1080.83,254.833 1082.17,255.167 1083.5,255.5C 1082.68,256.386 1081.68,256.719 1080.5,256.5C 1079.17,255.167 1077.83,255.167 1076.5,256.5C 1073.83,256.833 1071.17,257.167 1068.5,257.5C 1068.3,259.95 1068.63,262.283 1069.5,264.5C 1065.77,264.22 1064.61,262.22 1066,258.5C 1068,257.5 1068,256.5 1066,255.5C 1064.64,256.38 1063.14,256.714 1061.5,256.5C 1062.21,255.596 1063.21,255.263 1064.5,255.5C 1064.37,253.708 1064.7,252.042 1065.5,250.5 Z"/></g>
<g><path style="opacity:0.778" fill="#c8c9c8" d="M 1106.5,260.5 C 1108.2,260.66 1109.87,260.494 1111.5,260C 1110.66,258.989 1110.33,257.822 1110.5,256.5C 1110.83,256.5 1111.17,256.5 1111.5,256.5C 1113.5,256.5 1114.5,255.5 1114.5,253.5C 1121.94,249.704 1129.6,249.537 1137.5,253C 1138.74,255.563 1140.07,258.063 1141.5,260.5C 1143.77,259.456 1146.1,259.289 1148.5,260C 1151.99,261.478 1152.33,263.478 1149.5,266C 1146.44,266.741 1143.44,266.575 1140.5,265.5C 1139.72,264.271 1139.22,262.938 1139,261.5C 1138.52,262.448 1138.35,263.448 1138.5,264.5C 1130.18,267.486 1122.01,267.153 1114,263.5C 1112.35,265.922 1110.02,266.922 1107,266.5C 1103.88,266.511 1101.05,265.845 1098.5,264.5C 1098.5,261.5 1098.5,258.5 1098.5,255.5C 1097.17,255.5 1095.83,255.5 1094.5,255.5C 1091.94,252.298 1092.94,250.631 1097.5,250.5C 1098.69,250.322 1099.86,249.989 1101,249.5C 1103.21,251.111 1105.71,251.778 1108.5,251.5C 1108.5,252.833 1108.5,254.167 1108.5,255.5C 1106.83,255.5 1105.17,255.5 1103.5,255.5C 1103.5,257.5 1103.5,259.5 1103.5,261.5C 1104.79,261.737 1105.79,261.404 1106.5,260.5 Z M 1110.5,256.5 C 1110.33,257.822 1110.66,258.989 1111.5,260C 1109.87,260.494 1108.2,260.66 1106.5,260.5C 1106.5,259.167 1106.5,257.833 1106.5,256.5C 1107.83,256.5 1109.17,256.5 1110.5,256.5 Z"/></g>
<g><path style="opacity:0.719" fill="#d0d0d0" d="M 1279.5,261.5 C 1279.5,263.167 1279.5,264.833 1279.5,266.5C 1275.14,267.002 1271.81,265.502 1269.5,262C 1265.5,261.333 1261.5,261.333 1257.5,262C 1255.12,265.683 1251.79,267.016 1247.5,266C 1246.98,265.439 1246.64,264.772 1246.5,264C 1249.95,258.283 1253.78,252.783 1258,247.5C 1261.47,246.197 1264.97,246.197 1268.5,247.5C 1272.18,252.197 1275.84,256.864 1279.5,261.5 Z M 1262.5,254.5 C 1263.76,254.461 1264.76,254.961 1265.5,256C 1264.17,256.667 1262.83,256.667 1261.5,256C 1262.06,255.617 1262.39,255.117 1262.5,254.5 Z"/></g>
<g><path style="opacity:0.85" fill="#e0e1e0" d="M 1479.5,251.5 C 1479.54,252.583 1479.87,253.583 1480.5,254.5C 1479.67,254.833 1478.83,255.167 1478,255.5C 1475.78,254.468 1473.62,254.468 1471.5,255.5C 1468.35,252.683 1466.01,253.35 1464.5,257.5C 1464.75,258.713 1465.41,259.38 1466.5,259.5C 1467.71,260.234 1469.04,260.567 1470.5,260.5C 1470.5,261.5 1470.5,262.5 1470.5,263.5C 1471.68,263.281 1472.68,263.614 1473.5,264.5C 1471.71,265.17 1470.04,265.837 1468.5,266.5C 1466.85,266.34 1465.51,265.674 1464.5,264.5C 1463.74,263.609 1462.74,262.942 1461.5,262.5C 1461.17,261.5 1460.83,260.5 1460.5,259.5C 1461.31,256.554 1462.64,253.887 1464.5,251.5C 1469.5,250.167 1474.5,250.167 1479.5,251.5 Z"/></g>
<g><path style="opacity:0.447" fill="#b2b2b2" d="M 1479.5,251.5 C 1479.83,251.5 1480.17,251.5 1480.5,251.5C 1482.34,253.195 1483.68,255.195 1484.5,257.5C 1484.5,257.833 1484.5,258.167 1484.5,258.5C 1483.54,260.265 1483.21,262.265 1483.5,264.5C 1478.64,266.041 1473.64,266.708 1468.5,266.5C 1470.04,265.837 1471.71,265.17 1473.5,264.5C 1472.68,263.614 1471.68,263.281 1470.5,263.5C 1470.5,262.5 1470.5,261.5 1470.5,260.5C 1474.41,260.737 1478.08,259.904 1481.5,258C 1476.91,256.607 1472.24,256.274 1467.5,257C 1466.75,257.671 1466.41,258.504 1466.5,259.5C 1465.41,259.38 1464.75,258.713 1464.5,257.5C 1466.01,253.35 1468.35,252.683 1471.5,255.5C 1473.62,254.468 1475.78,254.468 1478,255.5C 1478.83,255.167 1479.67,254.833 1480.5,254.5C 1479.87,253.583 1479.54,252.583 1479.5,251.5 Z"/></g>
<g><path style="opacity:0.092" fill="#2e2e2e" d="M 1480.5,251.5 C 1483.41,251.789 1485.41,253.289 1486.5,256C 1485.96,256.717 1485.29,257.217 1484.5,257.5C 1483.68,255.195 1482.34,253.195 1480.5,251.5 Z"/></g>
<g><path style="opacity:0.404" fill="#6e6e6e" d="M 556.5,251.5 C 558.882,252.351 560.882,253.684 562.5,255.5C 562.5,257.5 562.5,259.5 562.5,261.5C 555.293,266.758 547.626,267.758 539.5,264.5C 546.028,265.955 552.361,265.289 558.5,262.5C 559.652,259.894 559.818,257.227 559,254.5C 557.583,253.922 556.75,252.922 556.5,251.5 Z"/></g>
<g><path style="opacity:0.848" fill="#d5d5d5" d="M 756.5,260.5 C 755.699,262.042 755.366,263.708 755.5,265.5C 752.833,265.5 750.167,265.5 747.5,265.5C 745.067,265.727 743.401,264.727 742.5,262.5C 743.01,259.612 742.344,257.279 740.5,255.5C 739.833,255.5 739.167,255.5 738.5,255.5C 738.5,254.833 738.167,254.5 737.5,254.5C 737.5,254.167 737.5,253.833 737.5,253.5C 737.5,252.5 737.5,251.5 737.5,250.5C 741.751,248.334 746.418,247.334 751.5,247.5C 751.5,248.5 751.5,249.5 751.5,250.5C 754.604,249.971 756.937,250.971 758.5,253.5C 756.937,256.029 754.604,257.029 751.5,256.5C 751.5,257.833 751.5,259.167 751.5,260.5C 753.167,260.5 754.833,260.5 756.5,260.5 Z"/></g>
<g><path style="opacity:0.118" fill="#878687" d="M 939.5,247.5 C 939.5,253.5 939.5,259.5 939.5,265.5C 941.5,265.5 943.5,265.5 945.5,265.5C 945.177,259.31 945.51,253.31 946.5,247.5C 947.49,253.645 947.823,259.978 947.5,266.5C 944.287,266.81 941.287,266.477 938.5,265.5C 938.177,259.31 938.51,253.31 939.5,247.5 Z"/></g>
<g><path style="opacity:0.834" fill="#eaebeb" d="M 1175.5,246.5 C 1174.71,252.419 1174.21,258.419 1174,264.5C 1171.54,265.649 1169.04,265.649 1166.5,264.5C 1166.33,258.824 1166.5,253.157 1167,247.5C 1169.72,246.556 1172.55,246.223 1175.5,246.5 Z"/></g>
<g><path style="opacity:0.02" fill="#2d2e2e" d="M 1193.5,250.5 C 1194.39,251.11 1195.39,251.443 1196.5,251.5C 1196.5,252.5 1196.5,253.5 1196.5,254.5C 1196.39,255.117 1196.06,255.617 1195.5,256C 1193.53,256.495 1191.53,256.662 1189.5,256.5C 1189.5,257.833 1189.5,259.167 1189.5,260.5C 1188.55,259.081 1188.22,257.415 1188.5,255.5C 1192.5,256.167 1194.17,254.5 1193.5,250.5 Z"/></g>
<g><path style="opacity:0.196" fill="#537f5b" d="M 438.5,247.5 C 434.852,250.997 430.519,253.497 425.5,255C 413.394,259.297 401.394,259.464 389.5,255.5C 398.481,256.475 407.481,256.642 416.5,256C 420.157,254.178 423.824,252.678 427.5,251.5C 431.036,249.81 434.702,248.477 438.5,247.5 Z"/></g>
<g><path style="opacity:0.016" fill="#1a1a1a" d="M 712.5,253.5 C 713.316,255.144 714.65,256.31 716.5,257C 715.207,257.49 713.873,257.657 712.5,257.5C 711.314,256.039 711.314,254.705 712.5,253.5 Z"/></g>
<g><path style="opacity:0.266" fill="#d3d3d3" d="M 827.5,260.5 C 827.5,259.167 827.5,257.833 827.5,256.5C 830.843,252.187 835.343,250.187 841,250.5C 842.894,250.58 844.727,250.913 846.5,251.5C 847.322,246.178 850.322,245.178 855.5,248.5C 856.833,254.167 856.833,259.833 855.5,265.5C 854.554,265.987 853.554,266.32 852.5,266.5C 847.219,266.255 841.886,266.088 836.5,266C 832.763,265.142 829.763,263.309 827.5,260.5 Z M 840.5,255.5 C 842.564,255.687 844.564,256.187 846.5,257C 847.451,257.718 847.617,258.551 847,259.5C 843.927,260.617 840.76,260.784 837.5,260C 836.549,259.282 836.383,258.449 837,257.5C 838.302,256.915 839.469,256.249 840.5,255.5 Z"/></g>
<g><path style="opacity:0.316" fill="#535353" d="M 877.5,248.5 C 877.25,249.922 876.417,250.922 875,251.5C 874.013,255.475 874.513,259.141 876.5,262.5C 871.817,260.79 870.317,257.457 872,252.5C 873.432,250.561 875.265,249.228 877.5,248.5 Z"/></g>
<g><path style="opacity:0.812" fill="#bfc0c0" d="M 1412.5,269.5 C 1409.83,269.5 1407.17,269.5 1404.5,269.5C 1404.5,268.167 1404.5,266.833 1404.5,265.5C 1406.56,265.313 1408.56,264.813 1410.5,264C 1406.92,260.928 1403.92,257.428 1401.5,253.5C 1403.33,252.418 1405.33,252.418 1407.5,253.5C 1409.85,255.192 1412.18,256.858 1414.5,258.5C 1416.6,255.896 1418.93,253.396 1421.5,251C 1423.89,250.713 1426.22,250.213 1428.5,249.5C 1428.83,250.167 1429.17,250.833 1429.5,251.5C 1425.87,259.458 1420.21,265.458 1412.5,269.5 Z"/></g>
<g><path style="opacity:0.019" fill="#0e0e0d" d="M 1446.5,256.5 C 1448.39,258.988 1449.05,261.988 1448.5,265.5C 1450.1,265.232 1451.43,265.566 1452.5,266.5C 1450.53,266.739 1448.7,266.406 1447,265.5C 1446.5,262.518 1446.34,259.518 1446.5,256.5 Z"/></g>
<g><path style="opacity:0.535" fill="#7a7b7a" d="M 1464.5,251.5 C 1462.64,253.887 1461.31,256.554 1460.5,259.5C 1460.83,260.5 1461.17,261.5 1461.5,262.5C 1462.74,262.942 1463.74,263.609 1464.5,264.5C 1461.55,264.85 1459.21,263.85 1457.5,261.5C 1456.89,260.609 1456.56,259.609 1456.5,258.5C 1457.36,254.365 1460.02,252.031 1464.5,251.5 Z"/></g>
<g><path style="opacity:1" fill="#26d96f" d="M 234.5,248.5 C 234.158,249.338 233.492,249.672 232.5,249.5C 226.871,251.08 221.204,252.58 215.5,254C 212.611,256.612 209.278,258.445 205.5,259.5C 210.128,269.118 207.794,276.118 198.5,280.5C 190.731,283.041 182.731,284.375 174.5,284.5C 168.779,284.526 163.112,284.026 157.5,283C 152.675,281.088 147.841,279.254 143,277.5C 141.633,273.3 141.133,268.967 141.5,264.5C 145.242,263.119 148.576,260.952 151.5,258C 162.588,254.827 173.922,253.661 185.5,254.5C 196.018,257.292 205.351,255.292 213.5,248.5C 219.831,249.981 224.498,247.981 227.5,242.5C 233.864,239.909 240.531,238.242 247.5,237.5C 247.67,238.822 247.337,239.989 246.5,241C 242.272,243.273 238.272,245.773 234.5,248.5 Z"/></g>
<g><path style="opacity:0.192" fill="#434043" d="M 537.5,252.5 C 535.628,254.045 534.628,256.045 534.5,258.5C 535.273,260.68 536.273,262.68 537.5,264.5C 535.292,263.977 533.792,262.644 533,260.5C 532.617,261.056 532.117,261.389 531.5,261.5C 531.557,260.391 531.89,259.391 532.5,258.5C 532.5,257.5 532.5,256.5 532.5,255.5C 533.167,255.5 533.5,255.167 533.5,254.5C 534.605,253.4 535.938,252.733 537.5,252.5 Z"/></g>
<g><path style="opacity:0.161" fill="#535353" d="M 651.5,250.5 C 648.919,254.464 648.919,258.464 651.5,262.5C 645.069,258.201 645.069,254.201 651.5,250.5 Z"/></g>
<g><path style="opacity:0.55" fill="#dcdfdd" d="M 686.5,246.5 C 688.167,246.5 689.833,246.5 691.5,246.5C 691.216,248.415 691.549,250.081 692.5,251.5C 698.477,249.949 704.144,250.783 709.5,254C 710.795,257.786 710.795,261.62 709.5,265.5C 708.817,265.863 708.15,266.196 707.5,266.5C 704.142,264.646 702.642,261.646 703,257.5C 702.329,256.748 701.496,256.414 700.5,256.5C 699.167,256.167 697.833,255.833 696.5,255.5C 694.533,255.261 692.699,255.594 691,256.5C 690.502,259.482 690.335,262.482 690.5,265.5C 688.61,265.703 687.11,265.037 686,263.5C 685.215,257.751 685.382,252.084 686.5,246.5 Z"/></g>
<g><path style="opacity:0.745" fill="#cbcdcc" d="M 800.5,250.5 C 806.131,251.241 811.797,251.408 817.5,251C 819.878,251.511 822.212,252.178 824.5,253C 825.252,253.671 825.586,254.504 825.5,255.5C 825.5,258.833 825.5,262.167 825.5,265.5C 822.946,266.388 820.279,266.721 817.5,266.5C 817.292,264.08 817.626,261.747 818.5,259.5C 816.194,255.506 813.194,254.839 809.5,257.5C 810.448,260.36 810.115,263.026 808.5,265.5C 805.833,265.5 803.167,265.5 800.5,265.5C 800.5,260.5 800.5,255.5 800.5,250.5 Z"/></g>
<g><path style="opacity:0.38" fill="#7c7c7c" d="M 1055.5,251.5 C 1054.5,251.5 1053.5,251.5 1052.5,251.5C 1052.5,256.167 1052.5,260.833 1052.5,265.5C 1054.1,265.232 1055.43,265.566 1056.5,266.5C 1054.08,266.708 1051.75,266.374 1049.5,265.5C 1048.51,260.544 1048.17,255.544 1048.5,250.5C 1051.06,250.198 1053.39,250.532 1055.5,251.5 Z"/></g>
<g><path style="opacity:0.284" fill="#dedede" d="M 1065.5,250.5 C 1064.7,252.042 1064.37,253.708 1064.5,255.5C 1063.21,255.263 1062.21,255.596 1061.5,256.5C 1060.18,256.33 1059.01,256.663 1058,257.5C 1057.82,260.695 1057.32,263.695 1056.5,266.5C 1055.43,265.566 1054.1,265.232 1052.5,265.5C 1052.5,260.833 1052.5,256.167 1052.5,251.5C 1053.5,251.5 1054.5,251.5 1055.5,251.5C 1058.81,250.949 1062.14,250.616 1065.5,250.5 Z"/></g>
<g><path style="opacity:0.578" fill="#e2e3e2" d="M 1215.5,251.5 C 1216.07,252.973 1216.07,254.64 1215.5,256.5C 1216.83,256.5 1218.17,256.5 1219.5,256.5C 1220.5,256.5 1221.5,256.5 1222.5,256.5C 1228.21,257.677 1228.55,259.177 1223.5,261C 1228.91,263.302 1228.58,264.468 1222.5,264.5C 1222.5,262.833 1222.5,261.167 1222.5,259.5C 1218.46,259.325 1214.46,259.158 1210.5,259C 1214.08,259.614 1216.75,261.448 1218.5,264.5C 1217.68,265.386 1216.68,265.719 1215.5,265.5C 1213.15,265.162 1210.81,264.662 1208.5,264C 1207.94,263.275 1207.61,262.442 1207.5,261.5C 1208.22,258.781 1208.55,256.114 1208.5,253.5C 1210.61,252.056 1212.94,251.39 1215.5,251.5 Z"/></g>
<g><path style="opacity:0.412" fill="#d1d1d1" d="M 621.5,256.5 C 620.596,257.209 620.263,258.209 620.5,259.5C 614.132,259.17 607.798,259.504 601.5,260.5C 603.608,261.355 605.774,262.022 608,262.5C 610.547,260.823 613.38,260.156 616.5,260.5C 616.5,261.5 616.5,262.5 616.5,263.5C 614.833,263.5 613.167,263.5 611.5,263.5C 611.5,264.5 611.5,265.5 611.5,266.5C 605.479,267.035 599.813,265.868 594.5,263C 593.39,260.263 593.223,257.429 594,254.5C 601.814,249.821 609.98,249.321 618.5,253C 619.71,254.039 620.71,255.206 621.5,256.5 Z"/></g>
<g><path style="opacity:0.18" fill="#2e2e2e" d="M 733.5,251.5 C 734.833,252.167 736.167,252.833 737.5,253.5C 737.5,253.833 737.5,254.167 737.5,254.5C 738.167,254.5 738.5,254.833 738.5,255.5C 738.82,258.898 738.487,262.232 737.5,265.5C 735.357,266.754 733.357,266.754 731.5,265.5C 732.833,265.5 734.167,265.5 735.5,265.5C 735.904,260.601 735.237,255.934 733.5,251.5 Z"/></g>
<g><path style="opacity:0.693" fill="#e2e3e2" d="M 939.5,246.5 C 942.059,246.198 944.393,246.532 946.5,247.5C 945.51,253.31 945.177,259.31 945.5,265.5C 943.5,265.5 941.5,265.5 939.5,265.5C 939.5,259.5 939.5,253.5 939.5,247.5C 939.5,247.167 939.5,246.833 939.5,246.5 Z"/></g>
<g><path style="opacity:0.125" fill="#181818" d="M 1094.5,255.5 C 1095.83,255.5 1097.17,255.5 1098.5,255.5C 1098.5,258.5 1098.5,261.5 1098.5,264.5C 1097.01,263.688 1096.34,262.355 1096.5,260.5C 1096.57,259.228 1096.9,258.062 1097.5,257C 1096.26,256.768 1095.26,256.268 1094.5,255.5 Z"/></g>
<g><path style="opacity:0.302" fill="#3d3d3d" d="M 1179.5,255.5 C 1180.5,255.5 1181.5,255.5 1182.5,255.5C 1182.5,258.5 1182.5,261.5 1182.5,264.5C 1181.25,264.423 1180.42,263.756 1180,262.5C 1179.86,259.975 1179.69,257.642 1179.5,255.5 Z"/></g>
<g><path style="opacity:0.763" fill="#b1b1b1" d="M 1215.5,265.5 C 1216.68,265.719 1217.68,265.386 1218.5,264.5C 1216.75,261.448 1214.08,259.614 1210.5,259C 1214.46,259.158 1218.46,259.325 1222.5,259.5C 1222.5,261.167 1222.5,262.833 1222.5,264.5C 1228.58,264.468 1228.91,263.302 1223.5,261C 1228.55,259.177 1228.21,257.677 1222.5,256.5C 1221.5,255.167 1220.5,255.167 1219.5,256.5C 1218.17,256.5 1216.83,256.5 1215.5,256.5C 1216.07,254.64 1216.07,252.973 1215.5,251.5C 1220.76,250.336 1226.1,250.669 1231.5,252.5C 1231.56,256.366 1231.89,260.366 1232.5,264.5C 1228.77,265.607 1224.94,266.273 1221,266.5C 1218.97,266.494 1217.13,266.161 1215.5,265.5 Z"/></g>
<g><path style="opacity:0.537" fill="#cfcfcf" d="M 1399.5,248.5 C 1399.5,250.5 1399.5,252.5 1399.5,254.5C 1397.19,254.007 1394.86,253.674 1392.5,253.5C 1394.65,254.736 1396.98,255.736 1399.5,256.5C 1399.8,258.604 1399.47,260.604 1398.5,262.5C 1396.52,262.815 1395.18,263.815 1394.5,265.5C 1386.27,267.47 1378.43,266.47 1371,262.5C 1370.51,260.866 1370.34,259.199 1370.5,257.5C 1372.5,257.5 1374.5,257.5 1376.5,257.5C 1372.75,256.228 1371.58,253.561 1373,249.5C 1377.2,247.268 1381.7,245.935 1386.5,245.5C 1390.94,246.183 1395.27,247.183 1399.5,248.5 Z M 1376.5,257.5 C 1381.55,258.006 1386.55,258.839 1391.5,260C 1387.83,260.667 1384.17,260.667 1380.5,260C 1378.93,259.392 1377.6,258.558 1376.5,257.5 Z M 1392.5,253.5 C 1388.81,253.219 1385.15,252.719 1381.5,252C 1384.5,251.333 1387.5,251.333 1390.5,252C 1391.42,252.278 1392.08,252.778 1392.5,253.5 Z"/></g>
<g><path style="opacity:0.878" fill="#379a5f" d="M 185.5,254.5 C 173.922,253.661 162.588,254.827 151.5,258C 148.576,260.952 145.242,263.119 141.5,264.5C 141.133,268.967 141.633,273.3 143,277.5C 147.841,279.254 152.675,281.088 157.5,283C 163.112,284.026 168.779,284.526 174.5,284.5C 182.731,284.375 190.731,283.041 198.5,280.5C 196.928,281.687 195.261,282.687 193.5,283.5C 191.046,284.621 188.379,285.454 185.5,286C 170.843,288.145 156.843,286.145 143.5,280C 133.738,271.845 134.405,264.512 145.5,258C 149.215,256.705 152.882,255.538 156.5,254.5C 166.314,253.261 175.981,253.261 185.5,254.5 Z"/></g>
<g><path style="opacity:0.129" fill="#726d6e" d="M 700.5,256.5 C 701.496,256.414 702.329,256.748 703,257.5C 702.642,261.646 704.142,264.646 707.5,266.5C 705.396,266.799 703.396,266.466 701.5,265.5C 700.685,262.364 700.352,259.364 700.5,256.5 Z"/></g>
<g><path style="opacity:0.035" fill="#181818" d="M 740.5,255.5 C 742.344,257.279 743.01,259.612 742.5,262.5C 741.732,260.285 741.065,257.952 740.5,255.5 Z"/></g>
<g><path style="opacity:0.336" fill="#8b8e8e" d="M 792.5,251.5 C 794.229,252.117 795.729,253.117 797,254.5C 797.825,258.211 797.659,261.878 796.5,265.5C 793.115,266.068 789.782,266.401 786.5,266.5C 786.5,265.5 786.5,264.5 786.5,263.5C 789.127,264.092 791.794,264.425 794.5,264.5C 794.85,259.969 794.183,255.636 792.5,251.5 Z"/></g>
<g><path style="opacity:0.682" fill="#d4d4d4" d="M 983.5,252.5 C 984.505,256.521 984.505,260.521 983.5,264.5C 982.264,265.246 980.93,265.579 979.5,265.5C 972.977,267.195 966.644,266.695 960.5,264C 959.713,260.63 959.713,257.463 960.5,254.5C 960.818,253.353 961.484,252.519 962.5,252C 969.612,249.882 976.612,250.049 983.5,252.5 Z"/></g>
<g><path style="opacity:0.163" fill="#4b4b4b" d="M 1399.5,256.5 C 1401.44,258.011 1401.94,260.011 1401,262.5C 1398.95,263.793 1396.78,264.793 1394.5,265.5C 1395.18,263.815 1396.52,262.815 1398.5,262.5C 1399.47,260.604 1399.8,258.604 1399.5,256.5 Z"/></g>
<g><path style="opacity:0.756" fill="#cbcdcb" d="M 1456.5,258.5 C 1456.56,259.609 1456.89,260.609 1457.5,261.5C 1457.82,265.172 1456.15,266.838 1452.5,266.5C 1451.43,265.566 1450.1,265.232 1448.5,265.5C 1449.05,261.988 1448.39,258.988 1446.5,256.5C 1444.22,255.454 1441.88,255.454 1439.5,256.5C 1439.5,259.5 1439.5,262.5 1439.5,265.5C 1436.5,265.5 1433.5,265.5 1430.5,265.5C 1429.82,260.713 1430.16,255.88 1431.5,251C 1435.7,251.297 1439.87,251.13 1444,250.5C 1447.86,250.881 1451.53,251.881 1455,253.5C 1456.01,255.025 1456.51,256.692 1456.5,258.5 Z"/></g>
<g><path style="opacity:0.519" fill="#d2d3d2" d="M 556.5,251.5 C 556.75,252.922 557.583,253.922 559,254.5C 559.818,257.227 559.652,259.894 558.5,262.5C 552.361,265.289 546.028,265.955 539.5,264.5C 538.833,264.5 538.167,264.5 537.5,264.5C 536.273,262.68 535.273,260.68 534.5,258.5C 534.628,256.045 535.628,254.045 537.5,252.5C 543.614,250.346 549.948,250.013 556.5,251.5 Z M 546.5,255.5 C 548.414,256.185 550.414,256.685 552.5,257C 553.451,257.718 553.617,258.551 553,259.5C 549.606,260.456 546.106,260.789 542.5,260.5C 542.5,259.167 542.5,257.833 542.5,256.5C 544.099,256.768 545.432,256.434 546.5,255.5 Z"/></g>
<g><path style="opacity:0.655" fill="#d5d5d5" d="M 673.5,246.5 C 674.392,249.292 676.392,250.625 679.5,250.5C 679.5,251.5 679.5,252.5 679.5,253.5C 674.98,252.261 670.313,251.261 665.5,250.5C 663.443,250.436 661.777,251.102 660.5,252.5C 658.11,252.685 657.11,254.018 657.5,256.5C 657.709,257.994 658.376,259.161 659.5,260C 663.5,260.667 667.5,260.667 671.5,260C 674.447,257.836 677.781,257.002 681.5,257.5C 681.739,259.467 681.406,261.301 680.5,263C 670.589,267.812 660.923,267.646 651.5,262.5C 648.919,258.464 648.919,254.464 651.5,250.5C 653.273,249.108 655.273,247.941 657.5,247C 662.823,246.501 668.156,246.334 673.5,246.5 Z"/></g>
<g><path style="opacity:0.263" fill="#a0a2a2" d="M 673.5,246.5 C 677.515,247.75 680.681,250.083 683,253.5C 682.695,251.557 682.695,249.557 683,247.5C 684.011,246.663 685.178,246.33 686.5,246.5C 685.382,252.084 685.215,257.751 686,263.5C 687.11,265.037 688.61,265.703 690.5,265.5C 690.335,262.482 690.502,259.482 691,256.5C 692.699,255.594 694.533,255.261 696.5,255.5C 695.791,256.404 694.791,256.737 693.5,256.5C 692.883,256.611 692.383,256.944 692,257.5C 691.503,260.146 691.336,262.813 691.5,265.5C 688.97,266.776 686.303,266.776 683.5,265.5C 683.66,261.789 683.16,258.123 682,254.5C 678.461,256.138 675.294,255.638 672.5,253C 668.469,251.802 664.469,251.636 660.5,252.5C 661.777,251.102 663.443,250.436 665.5,250.5C 670.313,251.261 674.98,252.261 679.5,253.5C 679.5,252.5 679.5,251.5 679.5,250.5C 676.392,250.625 674.392,249.292 673.5,246.5 Z"/></g>
<g><path style="opacity:0.769" fill="#d4d4d4" d="M 1069.5,264.5 C 1068.63,262.283 1068.3,259.95 1068.5,257.5C 1071.17,257.167 1073.83,256.833 1076.5,256.5C 1077.83,256.5 1079.17,256.5 1080.5,256.5C 1081.68,256.719 1082.68,256.386 1083.5,255.5C 1082.17,255.167 1080.83,254.833 1079.5,254.5C 1075.8,255.463 1072.13,255.463 1068.5,254.5C 1069.13,253.583 1069.46,252.583 1069.5,251.5C 1075.88,250.061 1082.21,250.228 1088.5,252C 1091.94,253.506 1093.27,256.173 1092.5,260C 1092.33,261.833 1092.17,263.667 1092,265.5C 1091.11,266.081 1090.11,266.415 1089,266.5C 1083.55,266.223 1078.05,266.056 1072.5,266C 1071.26,265.768 1070.26,265.268 1069.5,264.5 Z"/></g>
<g><path style="opacity:0.188" fill="#d3d3d3" d="M 1286.5,246.5 C 1286.5,252.833 1286.5,259.167 1286.5,265.5C 1285.17,265.5 1283.83,265.5 1282.5,265.5C 1281.51,259.69 1281.18,253.69 1281.5,247.5C 1282.92,246.549 1284.59,246.216 1286.5,246.5 Z"/></g>
<g><path style="opacity:0.114" fill="#212121" d="M 1484.5,258.5 C 1485.17,259.167 1485.83,259.833 1486.5,260.5C 1485.78,262.164 1486.11,263.831 1487.5,265.5C 1486.25,265.423 1485.42,264.756 1485,263.5C 1484.62,264.056 1484.12,264.389 1483.5,264.5C 1483.21,262.265 1483.54,260.265 1484.5,258.5 Z"/></g>
<g><path style="opacity:0.635" fill="#d3d6d4" d="M 511.5,260.5 C 514.85,260.665 518.183,260.498 521.5,260C 524.884,257.397 528.551,256.897 532.5,258.5C 531.89,259.391 531.557,260.391 531.5,261.5C 523.943,266.576 515.61,267.743 506.5,265C 498.792,262.886 496.458,258.386 499.5,251.5C 501.861,251.326 504.194,250.993 506.5,250.5C 505.793,253.786 505.46,257.119 505.5,260.5C 507.691,261.291 509.691,261.291 511.5,260.5 Z"/></g>
<g><path style="opacity:0.086" fill="#131414" d="M 825.5,255.5 C 826.167,255.833 826.833,256.167 827.5,256.5C 827.5,257.833 827.5,259.167 827.5,260.5C 827.229,261.552 827.062,262.885 827,264.5C 826.617,265.056 826.117,265.389 825.5,265.5C 825.5,262.167 825.5,258.833 825.5,255.5 Z"/></g>
<g><path style="opacity:0.025" fill="#101010" d="M 1281.5,247.5 C 1281.18,253.69 1281.51,259.69 1282.5,265.5C 1282.5,265.833 1282.5,266.167 1282.5,266.5C 1281.5,266.5 1280.5,266.5 1279.5,266.5C 1279.5,264.833 1279.5,263.167 1279.5,261.5C 1280.17,256.833 1280.83,252.167 1281.5,247.5 Z"/></g>
<g><path style="opacity:0.212" fill="#969696" d="M 1292.5,246.5 C 1292.67,252.523 1293.17,258.523 1294,264.5C 1295.7,265.406 1297.53,265.739 1299.5,265.5C 1297.1,266.814 1294.6,266.814 1292,265.5C 1291.18,258.986 1291.35,252.653 1292.5,246.5 Z"/></g>
<g><path style="opacity:0.102" fill="#6e6e6e" d="M 1330.5,250.5 C 1330.33,254.846 1330.5,259.179 1331,263.5C 1332.4,265.192 1334.23,265.859 1336.5,265.5C 1336.34,262.482 1336.5,259.482 1337,256.5C 1338.7,255.594 1340.53,255.261 1342.5,255.5C 1338.8,256.19 1337.8,258.19 1339.5,261.5C 1339.61,263.374 1338.94,264.874 1337.5,266C 1334.47,266.288 1331.64,266.455 1329,266.5C 1328.33,261.5 1328.33,256.5 1329,251.5C 1329.38,250.944 1329.88,250.611 1330.5,250.5 Z"/></g>
<g><path style="opacity:0.522" fill="#459663" d="M 333.5,257.5 C 345.964,257.123 357.63,259.79 368.5,265.5C 368.265,266.097 367.765,266.43 367,266.5C 361.663,264.499 356.33,262.499 351,260.5C 345.524,259.787 340.024,259.287 334.5,259C 333.944,258.617 333.611,258.117 333.5,257.5 Z"/></g>
<g><path style="opacity:0.092" fill="#323533" d="M 693.5,256.5 C 694.055,260.012 693.388,263.012 691.5,265.5C 691.336,262.813 691.503,260.146 692,257.5C 692.383,256.944 692.883,256.611 693.5,256.5 Z"/></g>
<g><path style="opacity:0.102" fill="#4c4c4c" d="M 1488.5,260.5 C 1490.29,259.378 1492.29,259.211 1494.5,260C 1498.5,262 1498.5,264 1494.5,266C 1492.87,266.494 1491.2,266.66 1489.5,266.5C 1491.78,265.916 1493.78,264.749 1495.5,263C 1493.71,260.866 1491.38,260.033 1488.5,260.5 Z"/></g>
<g><path style="opacity:0.408" fill="#828282" d="M 621.5,256.5 C 621.539,257.583 621.873,258.583 622.5,259.5C 620.141,263.702 616.475,266.035 611.5,266.5C 611.5,265.5 611.5,264.5 611.5,263.5C 613.167,263.5 614.833,263.5 616.5,263.5C 616.5,262.5 616.5,261.5 616.5,260.5C 613.38,260.156 610.547,260.823 608,262.5C 605.774,262.022 603.608,261.355 601.5,260.5C 607.798,259.504 614.132,259.17 620.5,259.5C 620.263,258.209 620.596,257.209 621.5,256.5 Z"/></g>
<g><path style="opacity:0.362" fill="#cccccc" d="M 733.5,251.5 C 735.237,255.934 735.904,260.601 735.5,265.5C 734.167,265.5 732.833,265.5 731.5,265.5C 724.7,267.322 718.2,266.655 712,263.5C 711.322,261.402 711.489,259.402 712.5,257.5C 713.873,257.657 715.207,257.49 716.5,257C 714.65,256.31 713.316,255.144 712.5,253.5C 716.118,251.503 720.118,250.503 724.5,250.5C 727.517,250.768 730.517,251.102 733.5,251.5 Z"/></g>
<g><path style="opacity:0.38" fill="#616161" d="M 771.5,258.5 C 771.5,260.167 771.5,261.833 771.5,263.5C 775.856,264.595 780.189,265.595 784.5,266.5C 779.629,266.808 774.963,265.975 770.5,264C 769.02,261.765 769.353,259.932 771.5,258.5 Z"/></g>
<g><path style="opacity:0.35" fill="#c7c7c7" d="M 916.5,250.5 C 922.345,250.151 928.012,250.984 933.5,253C 937.434,256.542 937.434,260.042 933.5,263.5C 925.114,267.543 916.781,267.376 908.5,263C 906.346,260.237 906.18,257.404 908,254.5C 910.738,252.711 913.572,251.378 916.5,250.5 Z M 920.5,255.5 C 929.113,256.702 929.446,258.369 921.5,260.5C 914.264,259.342 913.931,257.675 920.5,255.5 Z"/></g>
<g><path style="opacity:0.448" fill="#bdbdbd" d="M 997.5,248.5 C 996.5,248.5 995.5,248.5 994.5,248.5C 993.431,253.178 993.431,257.844 994.5,262.5C 995.288,261.23 996.288,260.23 997.5,259.5C 1000.74,260.58 1004.08,260.747 1007.5,260C 1008.68,258.855 1008.68,257.688 1007.5,256.5C 1008.5,256.5 1009.5,256.5 1010.5,256.5C 1011.16,259.841 1009.82,261.841 1006.5,262.5C 1007.17,262.833 1007.83,263.167 1008.5,263.5C 1011.63,262.759 1014.63,261.759 1017.5,260.5C 1017.5,258.833 1017.5,257.167 1017.5,255.5C 1026.76,249.293 1036.26,248.959 1046,254.5C 1048.42,258.576 1047.58,261.743 1043.5,264C 1034.36,267.852 1025.69,267.019 1017.5,261.5C 1014.97,263.85 1011.97,265.35 1008.5,266C 1002.1,266.053 995.767,266.053 989.5,266C 988.358,259.916 988.191,253.749 989,247.5C 990.4,246.884 991.9,246.551 993.5,246.5C 995.333,246.585 996.666,247.252 997.5,248.5 Z M 1007.5,256.5 C 1008.68,257.688 1008.68,258.855 1007.5,260C 1004.08,260.747 1000.74,260.58 997.5,259.5C 997.414,258.504 997.748,257.671 998.5,257C 1001.48,256.502 1004.48,256.335 1007.5,256.5 Z M 1032.5,255.5 C 1034.04,256.301 1035.71,256.634 1037.5,256.5C 1037.5,257.833 1037.5,259.167 1037.5,260.5C 1034.15,260.665 1030.82,260.498 1027.5,260C 1026.17,259 1026.17,258 1027.5,257C 1029.38,256.802 1031.05,256.302 1032.5,255.5 Z"/></g>
<g><path style="opacity:0.621" fill="#d3d3d3" d="M 1486.5,260.5 C 1487.17,260.5 1487.83,260.5 1488.5,260.5C 1491.38,260.033 1493.71,260.866 1495.5,263C 1493.78,264.749 1491.78,265.916 1489.5,266.5C 1488.83,266.167 1488.17,265.833 1487.5,265.5C 1486.11,263.831 1485.78,262.164 1486.5,260.5 Z"/></g>
<g><path style="opacity:0.063" fill="#929292" d="M 983.5,252.5 C 986.323,256.32 987.156,260.653 986,265.5C 983.726,266.811 981.56,266.811 979.5,265.5C 980.93,265.579 982.264,265.246 983.5,264.5C 984.505,260.521 984.505,256.521 983.5,252.5 Z"/></g>
<g><path style="opacity:0.798" fill="#287245" d="M 232.5,249.5 C 224.43,253.594 216.097,257.427 207.5,261C 211.927,263.685 213.76,267.518 213,272.5C 207.561,278.119 201.061,281.785 193.5,283.5C 195.261,282.687 196.928,281.687 198.5,280.5C 207.794,276.118 210.128,269.118 205.5,259.5C 209.278,258.445 212.611,256.612 215.5,254C 221.204,252.58 226.871,251.08 232.5,249.5 Z"/></g>
<g><path style="opacity:1" fill="#29d871" d="M 317.5,241.5 C 318.06,243.801 318.56,246.134 319,248.5C 323.566,251.678 328.066,254.678 332.5,257.5C 332.833,257.5 333.167,257.5 333.5,257.5C 333.611,258.117 333.944,258.617 334.5,259C 340.024,259.287 345.524,259.787 351,260.5C 356.33,262.499 361.663,264.499 367,266.5C 367.765,266.43 368.265,266.097 368.5,265.5C 369.167,265.5 369.5,265.833 369.5,266.5C 370.71,270.819 370.71,275.152 369.5,279.5C 367.062,280.931 365.396,282.931 364.5,285.5C 364.167,285.5 363.833,285.5 363.5,285.5C 348.253,289.16 332.92,289.493 317.5,286.5C 316.209,286.737 315.209,286.404 314.5,285.5C 313.352,282.911 311.352,281.245 308.5,280.5C 307.511,276.893 307.177,273.226 307.5,269.5C 308.873,269.657 310.207,269.49 311.5,269C 314.5,267.333 317.5,265.667 320.5,264C 323.062,260.681 322.728,257.515 319.5,254.5C 315.66,251.453 311.826,248.453 308,245.5C 306.293,243.091 305.46,240.425 305.5,237.5C 309.991,237.765 313.991,239.098 317.5,241.5 Z"/></g>
<g><path style="opacity:0.029" fill="#5f5f5f" d="M 756.5,260.5 C 758.28,261.99 758.946,263.99 758.5,266.5C 754.629,266.815 750.962,266.482 747.5,265.5C 750.167,265.5 752.833,265.5 755.5,265.5C 755.366,263.708 755.699,262.042 756.5,260.5 Z"/></g>
<g><path style="opacity:0.009" fill="#1d1d1d" d="M 800.5,250.5 C 800.5,255.5 800.5,260.5 800.5,265.5C 803.167,265.5 805.833,265.5 808.5,265.5C 805.713,266.477 802.713,266.81 799.5,266.5C 799.179,260.974 799.512,255.64 800.5,250.5 Z"/></g>
<g><path style="opacity:0.008" fill="#6b6b6b" d="M 1192.5,260.5 C 1196.35,260.701 1197.35,262.534 1195.5,266C 1192.3,266.805 1189.3,266.638 1186.5,265.5C 1188.5,265.5 1190.5,265.5 1192.5,265.5C 1192.5,263.833 1192.5,262.167 1192.5,260.5 Z"/></g>
<g><path style="opacity:0.62" fill="#dedede" d="M 630.5,260.5 C 630.5,262.167 630.5,263.833 630.5,265.5C 628.723,265.786 627.056,266.453 625.5,267.5C 623.962,267.547 622.962,266.88 622.5,265.5C 622.286,263.856 622.62,262.356 623.5,261C 625.81,260.503 628.143,260.337 630.5,260.5 Z"/></g>
<g><path style="opacity:0.294" fill="#808080" d="M 630.5,260.5 C 631.5,260.5 632.5,260.5 633.5,260.5C 632.861,264.76 630.528,267.76 626.5,269.5C 623.473,271.381 621.473,270.714 620.5,267.5C 620.747,266.287 621.414,265.62 622.5,265.5C 622.962,266.88 623.962,267.547 625.5,267.5C 627.056,266.453 628.723,265.786 630.5,265.5C 630.5,263.833 630.5,262.167 630.5,260.5 Z"/></g>
<g><path style="opacity:0.804" fill="#349059" d="M 317.5,241.5 C 313.991,239.098 309.991,237.765 305.5,237.5C 305.46,240.425 306.293,243.091 308,245.5C 311.826,248.453 315.66,251.453 319.5,254.5C 322.728,257.515 323.062,260.681 320.5,264C 317.5,265.667 314.5,267.333 311.5,269C 310.207,269.49 308.873,269.657 307.5,269.5C 307.177,273.226 307.511,276.893 308.5,280.5C 311.352,281.245 313.352,282.911 314.5,285.5C 306.524,283.529 303.024,278.529 304,270.5C 308.561,266.134 313.728,262.634 319.5,260C 312.095,252.931 305.095,245.598 298.5,238C 298.645,237.228 298.978,236.561 299.5,236C 303.833,235.333 308.167,235.333 312.5,236C 314.766,237.426 316.433,239.259 317.5,241.5 Z"/></g>
<g><path style="opacity:0.069" fill="#333333" d="M 1404.5,265.5 C 1404.5,266.833 1404.5,268.167 1404.5,269.5C 1407.17,269.5 1409.83,269.5 1412.5,269.5C 1409.71,270.477 1406.71,270.81 1403.5,270.5C 1403.22,268.585 1403.55,266.919 1404.5,265.5 Z"/></g>
<g><path style="opacity:0.475" fill="#358051" d="M 369.5,266.5 C 377.366,271.781 377.366,277.281 369.5,283C 367.807,283.847 366.14,284.68 364.5,285.5C 365.396,282.931 367.062,280.931 369.5,279.5C 370.71,275.152 370.71,270.819 369.5,266.5 Z"/></g>
<g><path style="opacity:0.329" fill="#65a578" d="M 363.5,285.5 C 356.081,289.297 348.081,290.964 339.5,290.5C 331.723,290.872 324.389,289.539 317.5,286.5C 332.92,289.493 348.253,289.16 363.5,285.5 Z"/></g>
</svg>
